%TF.GenerationSoftware,KiCad,Pcbnew,9.0.2*%
%TF.CreationDate,2025-08-02T09:46:46-05:00*%
%TF.ProjectId,GettingToBlinky_5.0,47657474-696e-4675-946f-426c696e6b79,rev?*%
%TF.SameCoordinates,Original*%
%TF.FileFunction,Legend,Top*%
%TF.FilePolarity,Positive*%
%FSLAX46Y46*%
G04 Gerber Fmt 4.6, Leading zero omitted, Abs format (unit mm)*
G04 Created by KiCad (PCBNEW 9.0.2) date 2025-08-02 09:46:46*
%MOMM*%
%LPD*%
G01*
G04 APERTURE LIST*
%ADD10C,0.200000*%
%ADD11C,0.150000*%
%ADD12C,0.120000*%
G04 APERTURE END LIST*
D10*
G36*
X138162757Y-83088981D02*
G01*
X138103955Y-83371539D01*
X137953596Y-83439642D01*
X137845027Y-83476869D01*
X137739724Y-83498005D01*
X137628231Y-83505170D01*
X137524185Y-83499491D01*
X137430784Y-83483147D01*
X137346680Y-83456902D01*
X137258117Y-83413010D01*
X137200135Y-83363479D01*
X137158561Y-83298103D01*
X137123015Y-83196600D01*
X137110753Y-83122656D01*
X137110419Y-83040867D01*
X137123290Y-82949671D01*
X137154889Y-82797629D01*
X137183747Y-82695964D01*
X137226794Y-82600000D01*
X137284608Y-82508838D01*
X137358312Y-82421831D01*
X137449755Y-82339306D01*
X137544919Y-82277076D01*
X137644634Y-82233271D01*
X137750113Y-82206918D01*
X137862888Y-82197983D01*
X137945259Y-82202520D01*
X138019050Y-82215568D01*
X138088704Y-82237713D01*
X138152041Y-82268325D01*
X138201981Y-82236223D01*
X138240701Y-82227292D01*
X138280521Y-82235691D01*
X138307104Y-82259532D01*
X138318778Y-82297784D01*
X138312508Y-82368709D01*
X138283749Y-82506919D01*
X138261201Y-82576334D01*
X138232366Y-82616646D01*
X138194242Y-82641308D01*
X138151949Y-82649344D01*
X138119009Y-82643425D01*
X138094521Y-82626537D01*
X138082423Y-82605432D01*
X138075196Y-82557752D01*
X138069200Y-82509078D01*
X138059625Y-82485670D01*
X138031577Y-82459561D01*
X137974995Y-82432364D01*
X137907977Y-82415187D01*
X137826068Y-82409009D01*
X137745804Y-82414877D01*
X137671791Y-82432049D01*
X137602952Y-82460300D01*
X137534221Y-82509008D01*
X137457139Y-82592649D01*
X137413200Y-82658108D01*
X137381187Y-82726240D01*
X137360419Y-82797721D01*
X137328912Y-82949487D01*
X137318059Y-83035904D01*
X137323036Y-83105132D01*
X137341060Y-83160994D01*
X137371135Y-83206492D01*
X137412367Y-83241328D01*
X137470317Y-83268647D01*
X137549846Y-83287163D01*
X137657083Y-83294145D01*
X137750190Y-83288074D01*
X137839529Y-83270043D01*
X137925902Y-83240014D01*
X137957318Y-83088981D01*
X137747849Y-83088981D01*
X137681566Y-83080351D01*
X137648198Y-83059855D01*
X137631719Y-83027253D01*
X137632445Y-82983468D01*
X137649242Y-82940750D01*
X137679889Y-82907172D01*
X137723489Y-82886135D01*
X137791721Y-82877955D01*
X138156620Y-82877955D01*
X138222876Y-82886612D01*
X138256180Y-82907172D01*
X138272588Y-82939690D01*
X138271842Y-82983468D01*
X138257169Y-83027022D01*
X138234473Y-83059855D01*
X138203206Y-83081516D01*
X138162757Y-83088981D01*
G37*
G36*
X139084377Y-82519829D02*
G01*
X139157464Y-82535051D01*
X139222465Y-82559493D01*
X139308304Y-82609288D01*
X139358203Y-82656579D01*
X139405562Y-82738955D01*
X139438620Y-82843608D01*
X139445343Y-82924231D01*
X139433308Y-83023493D01*
X139414807Y-83112428D01*
X138571894Y-83112428D01*
X138588102Y-83163259D01*
X138616440Y-83206724D01*
X138658173Y-83244136D01*
X138708383Y-83270127D01*
X138776837Y-83287585D01*
X138868832Y-83294145D01*
X138992623Y-83283491D01*
X139182807Y-83244228D01*
X139295372Y-83223803D01*
X139332060Y-83231455D01*
X139358295Y-83253570D01*
X139372232Y-83286109D01*
X139370843Y-83328583D01*
X139355705Y-83366120D01*
X139326238Y-83398375D01*
X139262704Y-83430794D01*
X139115762Y-83470732D01*
X138955190Y-83496882D01*
X138809939Y-83505170D01*
X138687200Y-83494998D01*
X138588417Y-83466822D01*
X138508847Y-83422760D01*
X138445040Y-83362930D01*
X138396557Y-83288836D01*
X138367840Y-83207498D01*
X138358413Y-83116553D01*
X138369936Y-83012960D01*
X138401903Y-82907416D01*
X138405043Y-82901402D01*
X138621720Y-82901402D01*
X139231075Y-82901402D01*
X139206823Y-82845996D01*
X139174949Y-82802599D01*
X139135271Y-82769328D01*
X139088637Y-82745861D01*
X139031974Y-82730910D01*
X138962988Y-82725547D01*
X138894577Y-82730565D01*
X138831694Y-82745231D01*
X138773394Y-82769328D01*
X138694190Y-82823020D01*
X138621720Y-82901402D01*
X138405043Y-82901402D01*
X138451048Y-82813299D01*
X138518009Y-82728891D01*
X138604592Y-82653190D01*
X138702938Y-82591064D01*
X138801203Y-82548178D01*
X138900421Y-82522918D01*
X139001823Y-82514521D01*
X139084377Y-82519829D01*
G37*
G36*
X140182889Y-82748995D02*
G01*
X140095145Y-83170955D01*
X140090786Y-83232022D01*
X140103572Y-83260256D01*
X140129767Y-83276930D01*
X140174690Y-83289169D01*
X140246912Y-83294145D01*
X140350376Y-83286682D01*
X140451625Y-83264298D01*
X140551635Y-83226550D01*
X140605503Y-83205655D01*
X140637181Y-83200355D01*
X140673241Y-83208113D01*
X140700471Y-83231038D01*
X140715483Y-83264287D01*
X140714576Y-83305685D01*
X140699071Y-83343152D01*
X140667864Y-83376302D01*
X140625497Y-83403638D01*
X140557621Y-83433250D01*
X140455464Y-83464779D01*
X140308015Y-83496279D01*
X140203039Y-83505170D01*
X140105197Y-83498605D01*
X140030743Y-83480980D01*
X139974770Y-83454586D01*
X139933395Y-83420449D01*
X139900939Y-83375785D01*
X139881595Y-83327253D01*
X139874674Y-83273415D01*
X139881005Y-83212354D01*
X139977359Y-82748995D01*
X139903170Y-82748995D01*
X139836925Y-82740314D01*
X139803611Y-82719685D01*
X139787200Y-82686913D01*
X139787949Y-82642932D01*
X139804543Y-82600962D01*
X139835210Y-82567370D01*
X139878827Y-82546195D01*
X139947042Y-82537969D01*
X140021231Y-82537969D01*
X140060432Y-82349383D01*
X140082641Y-82281376D01*
X140111357Y-82241855D01*
X140149517Y-82217676D01*
X140192781Y-82209706D01*
X140232715Y-82218067D01*
X140259734Y-82241855D01*
X140271864Y-82279838D01*
X140265963Y-82349383D01*
X140226762Y-82537969D01*
X140606590Y-82537969D01*
X140672904Y-82546675D01*
X140706241Y-82567370D01*
X140722649Y-82600065D01*
X140721903Y-82644031D01*
X140705294Y-82686012D01*
X140674550Y-82719685D01*
X140631008Y-82740785D01*
X140562718Y-82748995D01*
X140182889Y-82748995D01*
G37*
G36*
X141441717Y-82748995D02*
G01*
X141353973Y-83170955D01*
X141349613Y-83232022D01*
X141362399Y-83260256D01*
X141388594Y-83276930D01*
X141433517Y-83289169D01*
X141505739Y-83294145D01*
X141609204Y-83286682D01*
X141710453Y-83264298D01*
X141810463Y-83226550D01*
X141864330Y-83205655D01*
X141896009Y-83200355D01*
X141932068Y-83208113D01*
X141959298Y-83231038D01*
X141974310Y-83264287D01*
X141973403Y-83305685D01*
X141957898Y-83343152D01*
X141926692Y-83376302D01*
X141884324Y-83403638D01*
X141816449Y-83433250D01*
X141714292Y-83464779D01*
X141566843Y-83496279D01*
X141461867Y-83505170D01*
X141364025Y-83498605D01*
X141289570Y-83480980D01*
X141233598Y-83454586D01*
X141192223Y-83420449D01*
X141159767Y-83375785D01*
X141140422Y-83327253D01*
X141133501Y-83273415D01*
X141139833Y-83212354D01*
X141236187Y-82748995D01*
X141161998Y-82748995D01*
X141095753Y-82740314D01*
X141062438Y-82719685D01*
X141046028Y-82686913D01*
X141046776Y-82642932D01*
X141063371Y-82600962D01*
X141094037Y-82567370D01*
X141137655Y-82546195D01*
X141205870Y-82537969D01*
X141280059Y-82537969D01*
X141319260Y-82349383D01*
X141341468Y-82281376D01*
X141370184Y-82241855D01*
X141408344Y-82217676D01*
X141451609Y-82209706D01*
X141491543Y-82218067D01*
X141518562Y-82241855D01*
X141530691Y-82279838D01*
X141524790Y-82349383D01*
X141485589Y-82537969D01*
X141865417Y-82537969D01*
X141931732Y-82546675D01*
X141965068Y-82567370D01*
X141981477Y-82600065D01*
X141980730Y-82644031D01*
X141964121Y-82686012D01*
X141933378Y-82719685D01*
X141889836Y-82740785D01*
X141821545Y-82748995D01*
X141441717Y-82748995D01*
G37*
G36*
X142951504Y-82139364D02*
G01*
X142905251Y-82362114D01*
X142660611Y-82362114D01*
X142706864Y-82139364D01*
X142951504Y-82139364D01*
G37*
G36*
X142896733Y-82537969D02*
G01*
X142746798Y-83258974D01*
X142993361Y-83258974D01*
X143059698Y-83267633D01*
X143093012Y-83288191D01*
X143109490Y-83320716D01*
X143108766Y-83364487D01*
X143091902Y-83407223D01*
X143061230Y-83440874D01*
X143017784Y-83461833D01*
X142949489Y-83470000D01*
X142250924Y-83470000D01*
X142184560Y-83461367D01*
X142151181Y-83440874D01*
X142134793Y-83408282D01*
X142135611Y-83364487D01*
X142152390Y-83321762D01*
X142182964Y-83288191D01*
X142226497Y-83267160D01*
X142294796Y-83258974D01*
X142541359Y-83258974D01*
X142647422Y-82748995D01*
X142482008Y-82748995D01*
X142416455Y-82740411D01*
X142382815Y-82719869D01*
X142365990Y-82687229D01*
X142366604Y-82643482D01*
X142383401Y-82600764D01*
X142414048Y-82567186D01*
X142457581Y-82546155D01*
X142525881Y-82537969D01*
X142896733Y-82537969D01*
G37*
G36*
X143845799Y-82537969D02*
G01*
X143831145Y-82608311D01*
X143899239Y-82567024D01*
X143969631Y-82537969D01*
X144043478Y-82520436D01*
X144121305Y-82514521D01*
X144211413Y-82522700D01*
X144283220Y-82545339D01*
X144340551Y-82580908D01*
X144386004Y-82629743D01*
X144417692Y-82693851D01*
X144430050Y-82772374D01*
X144420167Y-82870444D01*
X144339384Y-83258974D01*
X144397654Y-83267363D01*
X144429509Y-83288191D01*
X144445642Y-83320678D01*
X144444805Y-83364487D01*
X144427941Y-83407223D01*
X144397269Y-83440874D01*
X144353823Y-83461833D01*
X144285528Y-83470000D01*
X144100056Y-83470000D01*
X144033692Y-83461367D01*
X144000314Y-83440874D01*
X143983925Y-83408282D01*
X143984743Y-83364487D01*
X144001430Y-83321725D01*
X144031638Y-83288191D01*
X144073622Y-83266906D01*
X144133945Y-83258974D01*
X144215736Y-82865773D01*
X144220211Y-82820935D01*
X144214318Y-82789041D01*
X144200257Y-82766214D01*
X144171569Y-82745217D01*
X144129006Y-82731009D01*
X144067450Y-82725547D01*
X143998467Y-82732430D01*
X143936933Y-82752475D01*
X143874711Y-82789241D01*
X143777472Y-82866231D01*
X143695865Y-83258974D01*
X143766789Y-83265329D01*
X143794050Y-83278391D01*
X143816434Y-83306354D01*
X143826340Y-83334527D01*
X143825375Y-83364487D01*
X143808511Y-83407223D01*
X143777839Y-83440874D01*
X143734392Y-83461833D01*
X143666098Y-83470000D01*
X143432540Y-83470000D01*
X143366193Y-83461363D01*
X143332889Y-83440874D01*
X143316501Y-83408282D01*
X143317319Y-83364487D01*
X143337212Y-83321309D01*
X143383356Y-83278025D01*
X143418199Y-83264879D01*
X143490518Y-83258974D01*
X143596580Y-82748995D01*
X143538219Y-82740625D01*
X143506363Y-82719869D01*
X143490297Y-82687312D01*
X143491159Y-82643482D01*
X143507956Y-82600764D01*
X143538603Y-82567186D01*
X143582136Y-82546155D01*
X143650436Y-82537969D01*
X143845799Y-82537969D01*
G37*
G36*
X145337211Y-82514614D02*
G01*
X145405137Y-82531832D01*
X145467870Y-82560934D01*
X145525305Y-82602449D01*
X145538769Y-82537969D01*
X145779287Y-82537969D01*
X145845543Y-82546626D01*
X145878846Y-82567186D01*
X145895255Y-82599704D01*
X145894508Y-82643482D01*
X145877714Y-82686216D01*
X145847064Y-82719869D01*
X145803629Y-82740831D01*
X145735415Y-82748995D01*
X145700244Y-82748995D01*
X145541058Y-83514513D01*
X145520875Y-83586348D01*
X145492245Y-83650507D01*
X145455238Y-83707953D01*
X145409849Y-83759189D01*
X145353842Y-83806560D01*
X145285886Y-83850102D01*
X145213015Y-83883368D01*
X145138371Y-83903056D01*
X145060938Y-83909637D01*
X144828480Y-83909637D01*
X144762165Y-83900930D01*
X144728829Y-83880236D01*
X144712351Y-83847681D01*
X144712984Y-83804673D01*
X144729852Y-83761747D01*
X144760519Y-83727920D01*
X144804061Y-83706820D01*
X144872352Y-83698611D01*
X145098857Y-83698611D01*
X145159838Y-83692531D01*
X145211596Y-83675181D01*
X145256027Y-83646953D01*
X145292990Y-83609246D01*
X145319190Y-83566068D01*
X145335345Y-83516345D01*
X145356411Y-83415045D01*
X145278055Y-83455040D01*
X145203454Y-83482639D01*
X145127920Y-83499616D01*
X145053977Y-83505170D01*
X144951489Y-83495445D01*
X144865893Y-83467934D01*
X144793798Y-83423683D01*
X144732950Y-83361739D01*
X144687697Y-83287479D01*
X144661072Y-83205361D01*
X144652985Y-83113018D01*
X144656433Y-83083381D01*
X144864785Y-83083381D01*
X144878822Y-83149735D01*
X144912469Y-83209240D01*
X144961778Y-83256133D01*
X145021736Y-83284270D01*
X145095743Y-83294145D01*
X145171010Y-83285004D01*
X145243299Y-83257336D01*
X145314371Y-83209240D01*
X145374452Y-83147654D01*
X145415742Y-83080649D01*
X145440125Y-83006915D01*
X145446133Y-82931119D01*
X145432076Y-82864919D01*
X145398360Y-82805140D01*
X145349117Y-82757926D01*
X145289195Y-82729618D01*
X145215177Y-82719685D01*
X145139997Y-82728871D01*
X145067681Y-82756702D01*
X144996458Y-82805140D01*
X144936308Y-82866983D01*
X144895108Y-82933817D01*
X144870887Y-83006915D01*
X144864785Y-83083381D01*
X144656433Y-83083381D01*
X144665265Y-83007465D01*
X144695270Y-82905718D01*
X144740655Y-82813420D01*
X144801917Y-82729201D01*
X144880412Y-82652183D01*
X144970181Y-82588337D01*
X145062735Y-82543961D01*
X145159228Y-82517549D01*
X145261156Y-82508660D01*
X145337211Y-82514614D01*
G37*
G36*
X147950728Y-82438318D02*
G01*
X147780094Y-83258974D01*
X147918488Y-83258974D01*
X147984744Y-83267631D01*
X148018047Y-83288191D01*
X148034525Y-83320716D01*
X148033801Y-83364487D01*
X148016937Y-83407223D01*
X147986265Y-83440874D01*
X147942829Y-83461836D01*
X147874616Y-83470000D01*
X147393488Y-83470000D01*
X147327124Y-83461367D01*
X147293745Y-83440874D01*
X147277357Y-83408282D01*
X147278175Y-83364487D01*
X147294954Y-83321762D01*
X147325527Y-83288191D01*
X147369060Y-83267160D01*
X147437360Y-83258974D01*
X147574563Y-83258974D01*
X147745198Y-82438318D01*
X147522814Y-82438318D01*
X147481324Y-82637620D01*
X147459007Y-82706228D01*
X147430216Y-82746064D01*
X147392062Y-82770319D01*
X147348883Y-82778304D01*
X147308879Y-82769919D01*
X147281838Y-82746064D01*
X147269794Y-82707781D01*
X147275793Y-82637620D01*
X147361156Y-82227292D01*
X148425628Y-82227292D01*
X148340265Y-82637620D01*
X148317948Y-82706228D01*
X148289157Y-82746064D01*
X148250990Y-82770315D01*
X148207732Y-82778304D01*
X148167807Y-82769924D01*
X148140779Y-82746064D01*
X148128735Y-82707781D01*
X148134734Y-82637620D01*
X148176225Y-82438318D01*
X147950728Y-82438318D01*
G37*
G36*
X149187003Y-82522572D02*
G01*
X149271613Y-82546260D01*
X149350789Y-82585688D01*
X149420159Y-82639400D01*
X149471589Y-82702735D01*
X149506952Y-82777021D01*
X149526860Y-82857879D01*
X149531798Y-82939821D01*
X149521698Y-83024134D01*
X149498574Y-83101948D01*
X149460990Y-83179655D01*
X149407392Y-83258058D01*
X149342909Y-83327390D01*
X149265801Y-83387337D01*
X149174568Y-83438126D01*
X149077058Y-83475983D01*
X148982359Y-83497973D01*
X148889445Y-83505170D01*
X148797744Y-83497664D01*
X148713283Y-83475650D01*
X148634638Y-83439225D01*
X148565036Y-83388912D01*
X148513014Y-83329407D01*
X148476552Y-83259615D01*
X148455288Y-83182974D01*
X148449303Y-83104291D01*
X148451071Y-83088969D01*
X148660477Y-83088969D01*
X148678367Y-83148978D01*
X148719543Y-83209057D01*
X148775723Y-83255373D01*
X148845637Y-83283950D01*
X148933408Y-83294145D01*
X149022834Y-83284666D01*
X149105612Y-83256570D01*
X149183635Y-83209057D01*
X149251471Y-83147051D01*
X149294050Y-83086180D01*
X149316168Y-83025142D01*
X149321838Y-82959003D01*
X149311006Y-82897878D01*
X149283561Y-82839670D01*
X149242230Y-82790385D01*
X149191292Y-82755294D01*
X149128816Y-82733374D01*
X149051653Y-82725547D01*
X148961935Y-82735591D01*
X148878807Y-82765444D01*
X148800235Y-82816222D01*
X148733433Y-82882054D01*
X148688770Y-82951595D01*
X148663398Y-83026149D01*
X148660477Y-83088969D01*
X148451071Y-83088969D01*
X148458784Y-83022119D01*
X148482790Y-82940989D01*
X148522044Y-82858905D01*
X148578310Y-82775006D01*
X148645747Y-82700148D01*
X148723915Y-82636701D01*
X148813882Y-82584131D01*
X148910555Y-82544750D01*
X149004033Y-82521961D01*
X149095433Y-82514521D01*
X149187003Y-82522572D01*
G37*
G36*
X151826853Y-82234785D02*
G01*
X151901153Y-82255573D01*
X151961317Y-82288107D01*
X152009861Y-82332255D01*
X152047563Y-82387261D01*
X152069896Y-82446044D01*
X152077707Y-82510166D01*
X152070219Y-82581658D01*
X152049985Y-82648035D01*
X152017371Y-82710710D01*
X151973273Y-82767943D01*
X151914972Y-82822359D01*
X151967227Y-82865753D01*
X152005601Y-82911891D01*
X152031934Y-82961211D01*
X152047208Y-83014930D01*
X152051295Y-83074360D01*
X152043200Y-83141096D01*
X152018481Y-83217837D01*
X151977071Y-83289657D01*
X151937482Y-83337366D01*
X151895738Y-83372638D01*
X151831859Y-83411145D01*
X151755787Y-83442889D01*
X151671607Y-83462725D01*
X151564911Y-83470000D01*
X150961509Y-83470000D01*
X150895146Y-83461367D01*
X150861767Y-83440874D01*
X150845309Y-83408274D01*
X150846105Y-83364487D01*
X150862994Y-83321806D01*
X150894007Y-83288191D01*
X150937887Y-83267110D01*
X151005382Y-83258974D01*
X151037438Y-83258974D01*
X151242877Y-83258974D01*
X151597701Y-83258974D01*
X151681121Y-83253838D01*
X151740634Y-83240480D01*
X151781982Y-83221238D01*
X151818418Y-83186709D01*
X151838036Y-83139722D01*
X151838540Y-83099832D01*
X151822748Y-83059187D01*
X151786653Y-83015341D01*
X151739635Y-82983585D01*
X151672361Y-82962264D01*
X151577917Y-82954159D01*
X151306258Y-82954159D01*
X151242877Y-83258974D01*
X151037438Y-83258974D01*
X151144694Y-82743133D01*
X151350130Y-82743133D01*
X151575628Y-82743133D01*
X151654558Y-82735976D01*
X151725494Y-82715137D01*
X151790042Y-82680759D01*
X151827459Y-82649379D01*
X151852097Y-82614869D01*
X151865788Y-82576437D01*
X151867474Y-82541131D01*
X151857463Y-82509522D01*
X151834830Y-82479808D01*
X151803443Y-82458784D01*
X151754522Y-82444088D01*
X151681140Y-82438318D01*
X151413511Y-82438318D01*
X151350130Y-82743133D01*
X151144694Y-82743133D01*
X151208073Y-82438318D01*
X151176016Y-82438318D01*
X151109652Y-82429685D01*
X151076273Y-82409192D01*
X151059793Y-82376590D01*
X151060519Y-82332805D01*
X151077317Y-82290088D01*
X151107964Y-82256509D01*
X151151574Y-82235475D01*
X151219888Y-82227292D01*
X151734996Y-82227292D01*
X151826853Y-82234785D01*
G37*
G36*
X153051160Y-82139364D02*
G01*
X152818427Y-83258974D01*
X153064990Y-83258974D01*
X153131262Y-83267627D01*
X153164641Y-83288191D01*
X153181118Y-83320716D01*
X153180395Y-83364487D01*
X153163531Y-83407223D01*
X153132859Y-83440874D01*
X153089345Y-83461839D01*
X153021118Y-83470000D01*
X152322553Y-83470000D01*
X152256189Y-83461367D01*
X152222810Y-83440874D01*
X152206353Y-83408274D01*
X152207148Y-83364487D01*
X152223946Y-83321769D01*
X152254592Y-83288191D01*
X152298125Y-83267160D01*
X152366425Y-83258974D01*
X152612988Y-83258974D01*
X152801849Y-82350390D01*
X152636435Y-82350390D01*
X152570881Y-82341807D01*
X152537242Y-82321264D01*
X152520486Y-82288632D01*
X152521122Y-82244877D01*
X152537901Y-82202153D01*
X152568475Y-82168582D01*
X152612008Y-82147551D01*
X152680307Y-82139364D01*
X153051160Y-82139364D01*
G37*
G36*
X154280953Y-82139364D02*
G01*
X154234699Y-82362114D01*
X153990060Y-82362114D01*
X154036313Y-82139364D01*
X154280953Y-82139364D01*
G37*
G36*
X154226181Y-82537969D02*
G01*
X154076247Y-83258974D01*
X154322810Y-83258974D01*
X154389147Y-83267633D01*
X154422461Y-83288191D01*
X154438939Y-83320716D01*
X154438215Y-83364487D01*
X154421351Y-83407223D01*
X154390679Y-83440874D01*
X154347232Y-83461833D01*
X154278938Y-83470000D01*
X153580373Y-83470000D01*
X153514009Y-83461367D01*
X153480630Y-83440874D01*
X153464242Y-83408282D01*
X153465060Y-83364487D01*
X153481839Y-83321762D01*
X153512412Y-83288191D01*
X153555945Y-83267160D01*
X153624245Y-83258974D01*
X153870808Y-83258974D01*
X153976871Y-82748995D01*
X153811457Y-82748995D01*
X153745903Y-82740411D01*
X153712264Y-82719869D01*
X153695439Y-82687229D01*
X153696052Y-82643482D01*
X153712850Y-82600764D01*
X153743497Y-82567186D01*
X153787030Y-82546155D01*
X153855329Y-82537969D01*
X154226181Y-82537969D01*
G37*
G36*
X155175248Y-82537969D02*
G01*
X155160594Y-82608311D01*
X155228688Y-82567024D01*
X155299079Y-82537969D01*
X155372927Y-82520436D01*
X155450754Y-82514521D01*
X155540861Y-82522700D01*
X155612668Y-82545339D01*
X155670000Y-82580908D01*
X155715452Y-82629743D01*
X155747141Y-82693851D01*
X155759498Y-82772374D01*
X155749616Y-82870444D01*
X155668832Y-83258974D01*
X155727103Y-83267363D01*
X155758958Y-83288191D01*
X155775091Y-83320678D01*
X155774254Y-83364487D01*
X155757390Y-83407223D01*
X155726718Y-83440874D01*
X155683271Y-83461833D01*
X155614977Y-83470000D01*
X155429505Y-83470000D01*
X155363141Y-83461367D01*
X155329762Y-83440874D01*
X155313374Y-83408282D01*
X155314192Y-83364487D01*
X155330879Y-83321725D01*
X155361086Y-83288191D01*
X155403070Y-83266906D01*
X155463394Y-83258974D01*
X155545184Y-82865773D01*
X155549660Y-82820935D01*
X155543767Y-82789041D01*
X155529706Y-82766214D01*
X155501018Y-82745217D01*
X155458455Y-82731009D01*
X155396898Y-82725547D01*
X155327916Y-82732430D01*
X155266381Y-82752475D01*
X155204160Y-82789241D01*
X155106921Y-82866231D01*
X155025314Y-83258974D01*
X155096237Y-83265329D01*
X155123499Y-83278391D01*
X155145883Y-83306354D01*
X155155788Y-83334527D01*
X155154823Y-83364487D01*
X155137959Y-83407223D01*
X155107288Y-83440874D01*
X155063841Y-83461833D01*
X154995546Y-83470000D01*
X154761989Y-83470000D01*
X154695641Y-83461363D01*
X154662338Y-83440874D01*
X154645950Y-83408282D01*
X154646768Y-83364487D01*
X154666661Y-83321309D01*
X154712805Y-83278025D01*
X154747647Y-83264879D01*
X154819966Y-83258974D01*
X154926029Y-82748995D01*
X154867668Y-82740625D01*
X154835812Y-82719869D01*
X154819746Y-82687312D01*
X154820607Y-82643482D01*
X154837405Y-82600764D01*
X154868052Y-82567186D01*
X154911585Y-82546155D01*
X154979884Y-82537969D01*
X155175248Y-82537969D01*
G37*
G36*
X156352743Y-83117465D02*
G01*
X156279470Y-83470000D01*
X156038952Y-83470000D01*
X155972588Y-83461367D01*
X155939209Y-83440874D01*
X155922752Y-83408274D01*
X155923547Y-83364487D01*
X155940437Y-83321806D01*
X155971449Y-83288191D01*
X156015262Y-83267116D01*
X156082824Y-83258974D01*
X156117812Y-83258974D01*
X156306673Y-82350390D01*
X156271685Y-82350390D01*
X156205321Y-82341758D01*
X156171942Y-82321264D01*
X156155532Y-82288670D01*
X156156280Y-82244877D01*
X156173078Y-82202160D01*
X156203724Y-82168582D01*
X156247257Y-82147551D01*
X156315557Y-82139364D01*
X156556075Y-82139364D01*
X156408797Y-82848005D01*
X156596650Y-82715564D01*
X156585895Y-82673127D01*
X156586575Y-82643665D01*
X156603277Y-82600894D01*
X156633561Y-82567278D01*
X156676704Y-82546192D01*
X156744844Y-82537969D01*
X156979317Y-82537969D01*
X157045654Y-82546628D01*
X157078968Y-82567186D01*
X157095446Y-82599711D01*
X157094722Y-82643482D01*
X157077928Y-82686216D01*
X157047278Y-82719869D01*
X157003754Y-82740832D01*
X156935445Y-82748995D01*
X156878384Y-82748995D01*
X156585934Y-82955166D01*
X156858509Y-83258974D01*
X156918684Y-83258974D01*
X156984956Y-83267627D01*
X157018335Y-83288191D01*
X157034813Y-83320716D01*
X157034089Y-83364487D01*
X157017225Y-83407223D01*
X156986553Y-83440874D01*
X156943040Y-83461839D01*
X156874812Y-83470000D01*
X156638232Y-83470000D01*
X156571895Y-83461340D01*
X156538581Y-83440782D01*
X156522168Y-83408111D01*
X156522919Y-83364303D01*
X156538603Y-83326279D01*
X156573386Y-83285260D01*
X156396981Y-83088156D01*
X156352743Y-83117465D01*
G37*
G36*
X157593710Y-83463863D02*
G01*
X157386531Y-82748995D01*
X157342288Y-82741003D01*
X157316372Y-82719869D01*
X157303999Y-82687707D01*
X157306114Y-82643482D01*
X157322912Y-82600764D01*
X157353558Y-82567186D01*
X157397169Y-82546152D01*
X157465483Y-82537969D01*
X157652878Y-82537969D01*
X157719215Y-82546628D01*
X157752529Y-82567186D01*
X157769007Y-82599711D01*
X157768283Y-82643482D01*
X157751489Y-82686216D01*
X157720839Y-82719869D01*
X157678039Y-82741013D01*
X157615051Y-82748995D01*
X157757017Y-83232412D01*
X158098102Y-82748995D01*
X158038840Y-82740617D01*
X158006420Y-82719869D01*
X157989940Y-82687267D01*
X157990666Y-82643482D01*
X158007464Y-82600764D01*
X158038110Y-82567186D01*
X158081721Y-82546152D01*
X158150034Y-82537969D01*
X158343475Y-82537969D01*
X158408923Y-82546598D01*
X158442118Y-82567186D01*
X158458527Y-82599704D01*
X158457780Y-82643482D01*
X158441907Y-82686578D01*
X158414824Y-82719869D01*
X158377780Y-82741358D01*
X158328637Y-82748995D01*
X157660114Y-83698611D01*
X157761322Y-83698611D01*
X157786454Y-83756612D01*
X157787517Y-83804124D01*
X157770719Y-83846841D01*
X157740073Y-83880419D01*
X157696551Y-83901453D01*
X157628332Y-83909637D01*
X157180268Y-83909637D01*
X157113931Y-83900977D01*
X157080617Y-83880419D01*
X157064140Y-83847894D01*
X157064863Y-83804124D01*
X157081658Y-83761389D01*
X157112308Y-83727737D01*
X157155832Y-83706774D01*
X157224140Y-83698611D01*
X157428572Y-83698611D01*
X157593710Y-83463863D01*
G37*
G36*
X160283465Y-82356252D02*
G01*
X160229884Y-82614173D01*
X160349890Y-82582532D01*
X160445856Y-82573140D01*
X160538408Y-82582055D01*
X160615208Y-82607220D01*
X160679462Y-82647658D01*
X160733269Y-82704298D01*
X160772213Y-82771707D01*
X160795031Y-82848757D01*
X160801140Y-82938052D01*
X160788224Y-83042819D01*
X160758246Y-83146581D01*
X160715472Y-83235744D01*
X160660171Y-83312359D01*
X160591761Y-83377859D01*
X160513358Y-83428699D01*
X160420240Y-83466568D01*
X160309629Y-83490704D01*
X160178135Y-83499309D01*
X160060363Y-83492498D01*
X159966119Y-83473867D01*
X159891232Y-83445532D01*
X159832196Y-83408725D01*
X159794960Y-83370339D01*
X159778320Y-83331297D01*
X159778890Y-83289016D01*
X159794507Y-83249534D01*
X159824869Y-83214552D01*
X159864049Y-83190415D01*
X159904187Y-83182770D01*
X159937369Y-83190922D01*
X159972880Y-83218490D01*
X160009185Y-83249044D01*
X160048809Y-83268041D01*
X160113944Y-83282584D01*
X160209002Y-83288283D01*
X160332827Y-83280029D01*
X160418498Y-83258800D01*
X160475898Y-83228474D01*
X160522141Y-83183301D01*
X160557740Y-83123229D01*
X160582327Y-83044742D01*
X160590670Y-82964444D01*
X160581059Y-82902350D01*
X160556407Y-82853592D01*
X160517567Y-82815753D01*
X160467323Y-82792515D01*
X160401984Y-82784166D01*
X160329037Y-82790924D01*
X160240670Y-82813340D01*
X160133531Y-82855332D01*
X160098930Y-82868430D01*
X160073905Y-82872093D01*
X160034730Y-82863658D01*
X160007043Y-82839212D01*
X159992996Y-82803081D01*
X159995320Y-82753849D01*
X160121807Y-82145226D01*
X160750305Y-82145226D01*
X160816619Y-82153933D01*
X160849956Y-82174627D01*
X160866342Y-82207320D01*
X160865526Y-82251289D01*
X160848936Y-82293276D01*
X160818265Y-82326943D01*
X160774724Y-82348043D01*
X160706433Y-82356252D01*
X160283465Y-82356252D01*
G37*
G36*
X161662460Y-83364487D02*
G01*
X161640845Y-83419318D01*
X161600453Y-83464870D01*
X161546268Y-83494777D01*
X161478820Y-83505170D01*
X161432491Y-83500077D01*
X161398580Y-83486331D01*
X161373948Y-83464870D01*
X161357433Y-83436438D01*
X161350529Y-83403604D01*
X161353798Y-83364487D01*
X161375347Y-83309674D01*
X161415714Y-83264194D01*
X161469906Y-83234217D01*
X161537347Y-83223803D01*
X161583667Y-83228906D01*
X161617579Y-83242681D01*
X161642219Y-83264194D01*
X161658742Y-83292570D01*
X161665677Y-83325374D01*
X161662460Y-83364487D01*
G37*
G36*
X163104203Y-82116875D02*
G01*
X163168972Y-82135771D01*
X163221157Y-82165376D01*
X163263611Y-82207604D01*
X163304074Y-82273514D01*
X163341782Y-82370632D01*
X163363561Y-82471323D01*
X163367641Y-82577068D01*
X163353231Y-82689552D01*
X163305329Y-82919812D01*
X163277880Y-83018691D01*
X163236546Y-83116594D01*
X163180380Y-83214186D01*
X163108042Y-83312005D01*
X163041002Y-83381868D01*
X162971263Y-83433926D01*
X162898218Y-83470231D01*
X162820857Y-83491953D01*
X162737831Y-83499309D01*
X162656724Y-83492419D01*
X162591711Y-83473357D01*
X162539536Y-83443530D01*
X162497173Y-83400975D01*
X162457032Y-83334882D01*
X162419918Y-83237816D01*
X162398715Y-83137112D01*
X162394956Y-83031650D01*
X162398238Y-83006213D01*
X162603269Y-83006213D01*
X162605498Y-83083737D01*
X162620242Y-83153796D01*
X162647064Y-83217849D01*
X162677725Y-83256194D01*
X162721095Y-83279687D01*
X162781703Y-83288283D01*
X162840070Y-83280029D01*
X162895337Y-83254950D01*
X162949223Y-83210705D01*
X163015759Y-83127087D01*
X163065618Y-83030761D01*
X163098975Y-82919537D01*
X163146785Y-82689827D01*
X163158324Y-82603695D01*
X163156280Y-82526302D01*
X163141856Y-82456040D01*
X163115461Y-82391515D01*
X163084249Y-82353079D01*
X163040799Y-82329621D01*
X162980822Y-82321081D01*
X162921855Y-82329364D01*
X162866286Y-82354473D01*
X162812386Y-82398659D01*
X162745850Y-82482277D01*
X162695991Y-82578603D01*
X162662635Y-82689827D01*
X162614824Y-82919537D01*
X162603269Y-83006213D01*
X162398238Y-83006213D01*
X162409385Y-82919812D01*
X162457288Y-82689552D01*
X162484560Y-82591185D01*
X162525711Y-82493544D01*
X162581713Y-82395966D01*
X162653934Y-82297909D01*
X162720858Y-82227818D01*
X162790492Y-82175609D01*
X162863442Y-82139208D01*
X162940721Y-82117430D01*
X163023687Y-82110055D01*
X163104203Y-82116875D01*
G37*
D11*
X141754819Y-96666666D02*
X141278628Y-96999999D01*
X141754819Y-97238094D02*
X140754819Y-97238094D01*
X140754819Y-97238094D02*
X140754819Y-96857142D01*
X140754819Y-96857142D02*
X140802438Y-96761904D01*
X140802438Y-96761904D02*
X140850057Y-96714285D01*
X140850057Y-96714285D02*
X140945295Y-96666666D01*
X140945295Y-96666666D02*
X141088152Y-96666666D01*
X141088152Y-96666666D02*
X141183390Y-96714285D01*
X141183390Y-96714285D02*
X141231009Y-96761904D01*
X141231009Y-96761904D02*
X141278628Y-96857142D01*
X141278628Y-96857142D02*
X141278628Y-97238094D01*
X140754819Y-96333332D02*
X140754819Y-95714285D01*
X140754819Y-95714285D02*
X141135771Y-96047618D01*
X141135771Y-96047618D02*
X141135771Y-95904761D01*
X141135771Y-95904761D02*
X141183390Y-95809523D01*
X141183390Y-95809523D02*
X141231009Y-95761904D01*
X141231009Y-95761904D02*
X141326247Y-95714285D01*
X141326247Y-95714285D02*
X141564342Y-95714285D01*
X141564342Y-95714285D02*
X141659580Y-95761904D01*
X141659580Y-95761904D02*
X141707200Y-95809523D01*
X141707200Y-95809523D02*
X141754819Y-95904761D01*
X141754819Y-95904761D02*
X141754819Y-96190475D01*
X141754819Y-96190475D02*
X141707200Y-96285713D01*
X141707200Y-96285713D02*
X141659580Y-96333332D01*
X159004819Y-92666666D02*
X158528628Y-92999999D01*
X159004819Y-93238094D02*
X158004819Y-93238094D01*
X158004819Y-93238094D02*
X158004819Y-92857142D01*
X158004819Y-92857142D02*
X158052438Y-92761904D01*
X158052438Y-92761904D02*
X158100057Y-92714285D01*
X158100057Y-92714285D02*
X158195295Y-92666666D01*
X158195295Y-92666666D02*
X158338152Y-92666666D01*
X158338152Y-92666666D02*
X158433390Y-92714285D01*
X158433390Y-92714285D02*
X158481009Y-92761904D01*
X158481009Y-92761904D02*
X158528628Y-92857142D01*
X158528628Y-92857142D02*
X158528628Y-93238094D01*
X159004819Y-91714285D02*
X159004819Y-92285713D01*
X159004819Y-91999999D02*
X158004819Y-91999999D01*
X158004819Y-91999999D02*
X158147676Y-92095237D01*
X158147676Y-92095237D02*
X158242914Y-92190475D01*
X158242914Y-92190475D02*
X158290533Y-92285713D01*
X149163095Y-89554819D02*
X149163095Y-90364342D01*
X149163095Y-90364342D02*
X149210714Y-90459580D01*
X149210714Y-90459580D02*
X149258333Y-90507200D01*
X149258333Y-90507200D02*
X149353571Y-90554819D01*
X149353571Y-90554819D02*
X149544047Y-90554819D01*
X149544047Y-90554819D02*
X149639285Y-90507200D01*
X149639285Y-90507200D02*
X149686904Y-90459580D01*
X149686904Y-90459580D02*
X149734523Y-90364342D01*
X149734523Y-90364342D02*
X149734523Y-89554819D01*
X150163095Y-89650057D02*
X150210714Y-89602438D01*
X150210714Y-89602438D02*
X150305952Y-89554819D01*
X150305952Y-89554819D02*
X150544047Y-89554819D01*
X150544047Y-89554819D02*
X150639285Y-89602438D01*
X150639285Y-89602438D02*
X150686904Y-89650057D01*
X150686904Y-89650057D02*
X150734523Y-89745295D01*
X150734523Y-89745295D02*
X150734523Y-89840533D01*
X150734523Y-89840533D02*
X150686904Y-89983390D01*
X150686904Y-89983390D02*
X150115476Y-90554819D01*
X150115476Y-90554819D02*
X150734523Y-90554819D01*
X159004819Y-96666666D02*
X158528628Y-96999999D01*
X159004819Y-97238094D02*
X158004819Y-97238094D01*
X158004819Y-97238094D02*
X158004819Y-96857142D01*
X158004819Y-96857142D02*
X158052438Y-96761904D01*
X158052438Y-96761904D02*
X158100057Y-96714285D01*
X158100057Y-96714285D02*
X158195295Y-96666666D01*
X158195295Y-96666666D02*
X158338152Y-96666666D01*
X158338152Y-96666666D02*
X158433390Y-96714285D01*
X158433390Y-96714285D02*
X158481009Y-96761904D01*
X158481009Y-96761904D02*
X158528628Y-96857142D01*
X158528628Y-96857142D02*
X158528628Y-97238094D01*
X158100057Y-96285713D02*
X158052438Y-96238094D01*
X158052438Y-96238094D02*
X158004819Y-96142856D01*
X158004819Y-96142856D02*
X158004819Y-95904761D01*
X158004819Y-95904761D02*
X158052438Y-95809523D01*
X158052438Y-95809523D02*
X158100057Y-95761904D01*
X158100057Y-95761904D02*
X158195295Y-95714285D01*
X158195295Y-95714285D02*
X158290533Y-95714285D01*
X158290533Y-95714285D02*
X158433390Y-95761904D01*
X158433390Y-95761904D02*
X159004819Y-96333332D01*
X159004819Y-96333332D02*
X159004819Y-95714285D01*
X141704819Y-101238094D02*
X140704819Y-101238094D01*
X140704819Y-101238094D02*
X140704819Y-100999999D01*
X140704819Y-100999999D02*
X140752438Y-100857142D01*
X140752438Y-100857142D02*
X140847676Y-100761904D01*
X140847676Y-100761904D02*
X140942914Y-100714285D01*
X140942914Y-100714285D02*
X141133390Y-100666666D01*
X141133390Y-100666666D02*
X141276247Y-100666666D01*
X141276247Y-100666666D02*
X141466723Y-100714285D01*
X141466723Y-100714285D02*
X141561961Y-100761904D01*
X141561961Y-100761904D02*
X141657200Y-100857142D01*
X141657200Y-100857142D02*
X141704819Y-100999999D01*
X141704819Y-100999999D02*
X141704819Y-101238094D01*
X141704819Y-99714285D02*
X141704819Y-100285713D01*
X141704819Y-99999999D02*
X140704819Y-99999999D01*
X140704819Y-99999999D02*
X140847676Y-100095237D01*
X140847676Y-100095237D02*
X140942914Y-100190475D01*
X140942914Y-100190475D02*
X140990533Y-100285713D01*
X141579580Y-92666666D02*
X141627200Y-92714285D01*
X141627200Y-92714285D02*
X141674819Y-92857142D01*
X141674819Y-92857142D02*
X141674819Y-92952380D01*
X141674819Y-92952380D02*
X141627200Y-93095237D01*
X141627200Y-93095237D02*
X141531961Y-93190475D01*
X141531961Y-93190475D02*
X141436723Y-93238094D01*
X141436723Y-93238094D02*
X141246247Y-93285713D01*
X141246247Y-93285713D02*
X141103390Y-93285713D01*
X141103390Y-93285713D02*
X140912914Y-93238094D01*
X140912914Y-93238094D02*
X140817676Y-93190475D01*
X140817676Y-93190475D02*
X140722438Y-93095237D01*
X140722438Y-93095237D02*
X140674819Y-92952380D01*
X140674819Y-92952380D02*
X140674819Y-92857142D01*
X140674819Y-92857142D02*
X140722438Y-92714285D01*
X140722438Y-92714285D02*
X140770057Y-92666666D01*
X141674819Y-91714285D02*
X141674819Y-92285713D01*
X141674819Y-91999999D02*
X140674819Y-91999999D01*
X140674819Y-91999999D02*
X140817676Y-92095237D01*
X140817676Y-92095237D02*
X140912914Y-92190475D01*
X140912914Y-92190475D02*
X140960533Y-92285713D01*
D12*
%TO.C,R3*%
X142165000Y-96272936D02*
X142165000Y-96727064D01*
X143635000Y-96272936D02*
X143635000Y-96727064D01*
%TO.C,R1*%
X156165000Y-92272936D02*
X156165000Y-92727064D01*
X157635000Y-92272936D02*
X157635000Y-92727064D01*
%TO.C,U2*%
X149925000Y-90940000D02*
X147975000Y-90940000D01*
X149925000Y-90940000D02*
X151875000Y-90940000D01*
X149925000Y-96060000D02*
X147975000Y-96060000D01*
X149925000Y-96060000D02*
X151875000Y-96060000D01*
X147225000Y-91035000D02*
X146985000Y-90705000D01*
X147465000Y-90705000D01*
X147225000Y-91035000D01*
G36*
X147225000Y-91035000D02*
G01*
X146985000Y-90705000D01*
X147465000Y-90705000D01*
X147225000Y-91035000D01*
G37*
%TO.C,R2*%
X156165000Y-96272936D02*
X156165000Y-96727064D01*
X157635000Y-96272936D02*
X157635000Y-96727064D01*
%TO.C,D1*%
X141940000Y-99500000D02*
X141940000Y-102360000D01*
X141940000Y-102360000D02*
X143860000Y-102360000D01*
X143860000Y-102360000D02*
X143860000Y-99500000D01*
%TO.C,C1*%
X142165000Y-92761252D02*
X142165000Y-92238748D01*
X143635000Y-92761252D02*
X143635000Y-92238748D01*
%TD*%
M02*
