%TF.GenerationSoftware,KiCad,Pcbnew,9.0.2*%
%TF.CreationDate,2025-08-02T09:46:46-05:00*%
%TF.ProjectId,GettingToBlinky_5.0,47657474-696e-4675-946f-426c696e6b79,rev?*%
%TF.SameCoordinates,Original*%
%TF.FileFunction,Copper,L1,Top*%
%TF.FilePolarity,Positive*%
%FSLAX46Y46*%
G04 Gerber Fmt 4.6, Leading zero omitted, Abs format (unit mm)*
G04 Created by KiCad (PCBNEW 9.0.2) date 2025-08-02 09:46:46*
%MOMM*%
%LPD*%
G01*
G04 APERTURE LIST*
G04 Aperture macros list*
%AMRoundRect*
0 Rectangle with rounded corners*
0 $1 Rounding radius*
0 $2 $3 $4 $5 $6 $7 $8 $9 X,Y pos of 4 corners*
0 Add a 4 corners polygon primitive as box body*
4,1,4,$2,$3,$4,$5,$6,$7,$8,$9,$2,$3,0*
0 Add four circle primitives for the rounded corners*
1,1,$1+$1,$2,$3*
1,1,$1+$1,$4,$5*
1,1,$1+$1,$6,$7*
1,1,$1+$1,$8,$9*
0 Add four rect primitives between the rounded corners*
20,1,$1+$1,$2,$3,$4,$5,0*
20,1,$1+$1,$4,$5,$6,$7,0*
20,1,$1+$1,$6,$7,$8,$9,0*
20,1,$1+$1,$8,$9,$2,$3,0*%
G04 Aperture macros list end*
%TA.AperFunction,SMDPad,CuDef*%
%ADD10RoundRect,0.250000X-0.450000X0.350000X-0.450000X-0.350000X0.450000X-0.350000X0.450000X0.350000X0*%
%TD*%
%TA.AperFunction,SMDPad,CuDef*%
%ADD11RoundRect,0.150000X-0.825000X-0.150000X0.825000X-0.150000X0.825000X0.150000X-0.825000X0.150000X0*%
%TD*%
%TA.AperFunction,SMDPad,CuDef*%
%ADD12RoundRect,0.250000X0.450000X-0.325000X0.450000X0.325000X-0.450000X0.325000X-0.450000X-0.325000X0*%
%TD*%
%TA.AperFunction,SMDPad,CuDef*%
%ADD13RoundRect,0.250000X0.475000X-0.250000X0.475000X0.250000X-0.475000X0.250000X-0.475000X-0.250000X0*%
%TD*%
%TA.AperFunction,ViaPad*%
%ADD14C,0.600000*%
%TD*%
%TA.AperFunction,Conductor*%
%ADD15C,0.200000*%
%TD*%
G04 APERTURE END LIST*
D10*
%TO.P,R3,1*%
%TO.N,Net-(U2-OUT)*%
X142900000Y-95500000D03*
%TO.P,R3,2*%
%TO.N,Net-(D1-A)*%
X142900000Y-97500000D03*
%TD*%
%TO.P,R1,1*%
%TO.N,/VDD*%
X156900000Y-91500000D03*
%TO.P,R1,2*%
%TO.N,Net-(U2-DIS)*%
X156900000Y-93500000D03*
%TD*%
D11*
%TO.P,U2,1,GND*%
%TO.N,GND*%
X147450000Y-91595000D03*
%TO.P,U2,2,TRIG*%
%TO.N,Net-(U2-THR)*%
X147450000Y-92865000D03*
%TO.P,U2,3,OUT*%
%TO.N,Net-(U2-OUT)*%
X147450000Y-94135000D03*
%TO.P,U2,4,RST*%
%TO.N,/VDD*%
X147450000Y-95405000D03*
%TO.P,U2,5,CNTRL*%
%TO.N,unconnected-(U2-CNTRL-Pad5)*%
X152400000Y-95405000D03*
%TO.P,U2,6,THR*%
%TO.N,Net-(U2-THR)*%
X152400000Y-94135000D03*
%TO.P,U2,7,DIS*%
%TO.N,Net-(U2-DIS)*%
X152400000Y-92865000D03*
%TO.P,U2,8,VDD*%
%TO.N,/VDD*%
X152400000Y-91595000D03*
%TD*%
D10*
%TO.P,R2,1*%
%TO.N,Net-(U2-DIS)*%
X156900000Y-95500000D03*
%TO.P,R2,2*%
%TO.N,Net-(U2-THR)*%
X156900000Y-97500000D03*
%TD*%
D12*
%TO.P,D1,1,K*%
%TO.N,GND*%
X142900000Y-101525000D03*
%TO.P,D1,2,A*%
%TO.N,Net-(D1-A)*%
X142900000Y-99475000D03*
%TD*%
D13*
%TO.P,C1,1*%
%TO.N,Net-(U2-THR)*%
X142900000Y-93450000D03*
%TO.P,C1,2*%
%TO.N,GND*%
X142900000Y-91550000D03*
%TD*%
D14*
%TO.N,GND*%
X142900000Y-104000000D03*
X147400000Y-89500000D03*
X142900000Y-89700000D03*
%TO.N,/VDD*%
X162200000Y-88600000D03*
X138200000Y-88100000D03*
%TD*%
D15*
%TO.N,GND*%
X147405000Y-91550000D02*
X147450000Y-91595000D01*
X147450000Y-91595000D02*
X147450000Y-89550000D01*
X142900000Y-101525000D02*
X142900000Y-104000000D01*
X142900000Y-91550000D02*
X142900000Y-89700000D01*
X147450000Y-89550000D02*
X147400000Y-89500000D01*
%TO.N,Net-(U2-THR)*%
X145135000Y-92865000D02*
X147450000Y-92865000D01*
X152400000Y-94135000D02*
X153635000Y-94135000D01*
X144550000Y-93450000D02*
X145135000Y-92865000D01*
X151425001Y-94135000D02*
X150155001Y-92865000D01*
X154900000Y-96800000D02*
X155600000Y-97500000D01*
X150155001Y-92865000D02*
X147450000Y-92865000D01*
X155600000Y-97500000D02*
X156900000Y-97500000D01*
X142900000Y-93450000D02*
X144550000Y-93450000D01*
X154900000Y-95400000D02*
X154900000Y-96800000D01*
X152400000Y-94135000D02*
X151425001Y-94135000D01*
X153635000Y-94135000D02*
X154900000Y-95400000D01*
%TO.N,Net-(D1-A)*%
X142900000Y-99475000D02*
X142900000Y-97500000D01*
%TO.N,Net-(U2-DIS)*%
X154000000Y-93500000D02*
X156900000Y-93500000D01*
X156900000Y-95500000D02*
X156900000Y-93500000D01*
X152400000Y-92865000D02*
X153365000Y-92865000D01*
X153365000Y-92865000D02*
X154000000Y-93500000D01*
%TO.N,Net-(U2-OUT)*%
X142900000Y-95500000D02*
X143900000Y-95500000D01*
X143900000Y-95500000D02*
X145265000Y-94135000D01*
X145265000Y-94135000D02*
X147450000Y-94135000D01*
%TD*%
%TA.AperFunction,Conductor*%
%TO.N,/VDD*%
G36*
X165842539Y-79020185D02*
G01*
X165888294Y-79072989D01*
X165899500Y-79124500D01*
X165899500Y-110375500D01*
X165879815Y-110442539D01*
X165827011Y-110488294D01*
X165775500Y-110499500D01*
X134524500Y-110499500D01*
X134457461Y-110479815D01*
X134411706Y-110427011D01*
X134400500Y-110375500D01*
X134400500Y-101145730D01*
X141999500Y-101145730D01*
X141999500Y-101904269D01*
X142002353Y-101934699D01*
X142002353Y-101934701D01*
X142047206Y-102062880D01*
X142047207Y-102062882D01*
X142127850Y-102172150D01*
X142237118Y-102252793D01*
X142279845Y-102267744D01*
X142365299Y-102297646D01*
X142395730Y-102300500D01*
X142395734Y-102300500D01*
X142475500Y-102300500D01*
X142542539Y-102320185D01*
X142588294Y-102372989D01*
X142599500Y-102424500D01*
X142599500Y-103541323D01*
X142579815Y-103608362D01*
X142563182Y-103629004D01*
X142499500Y-103692686D01*
X142433608Y-103806812D01*
X142399500Y-103934108D01*
X142399500Y-104065891D01*
X142433608Y-104193187D01*
X142466554Y-104250250D01*
X142499500Y-104307314D01*
X142592686Y-104400500D01*
X142706814Y-104466392D01*
X142834108Y-104500500D01*
X142834110Y-104500500D01*
X142965890Y-104500500D01*
X142965892Y-104500500D01*
X143093186Y-104466392D01*
X143207314Y-104400500D01*
X143300500Y-104307314D01*
X143366392Y-104193186D01*
X143400500Y-104065892D01*
X143400500Y-103934108D01*
X143366392Y-103806814D01*
X143300500Y-103692686D01*
X143236818Y-103629004D01*
X143203334Y-103567680D01*
X143200500Y-103541323D01*
X143200500Y-102424500D01*
X143220185Y-102357461D01*
X143272989Y-102311706D01*
X143324500Y-102300500D01*
X143404270Y-102300500D01*
X143434699Y-102297646D01*
X143434701Y-102297646D01*
X143498790Y-102275219D01*
X143562882Y-102252793D01*
X143672150Y-102172150D01*
X143752793Y-102062882D01*
X143775219Y-101998790D01*
X143797646Y-101934701D01*
X143797646Y-101934699D01*
X143800500Y-101904269D01*
X143800500Y-101145730D01*
X143797646Y-101115300D01*
X143797646Y-101115298D01*
X143752793Y-100987119D01*
X143752792Y-100987117D01*
X143672150Y-100877850D01*
X143562882Y-100797207D01*
X143562880Y-100797206D01*
X143434700Y-100752353D01*
X143404270Y-100749500D01*
X143404266Y-100749500D01*
X142395734Y-100749500D01*
X142395730Y-100749500D01*
X142365300Y-100752353D01*
X142365298Y-100752353D01*
X142237119Y-100797206D01*
X142237117Y-100797207D01*
X142127850Y-100877850D01*
X142047207Y-100987117D01*
X142047206Y-100987119D01*
X142002353Y-101115298D01*
X142002353Y-101115300D01*
X141999500Y-101145730D01*
X134400500Y-101145730D01*
X134400500Y-97095730D01*
X141999500Y-97095730D01*
X141999500Y-97904269D01*
X142002353Y-97934699D01*
X142002353Y-97934701D01*
X142047206Y-98062880D01*
X142047207Y-98062882D01*
X142127850Y-98172150D01*
X142237118Y-98252793D01*
X142279845Y-98267744D01*
X142365299Y-98297646D01*
X142395730Y-98300500D01*
X142395734Y-98300500D01*
X142475500Y-98300500D01*
X142484185Y-98303050D01*
X142493147Y-98301762D01*
X142517187Y-98312740D01*
X142542539Y-98320185D01*
X142548466Y-98327025D01*
X142556703Y-98330787D01*
X142570992Y-98353021D01*
X142588294Y-98372989D01*
X142590581Y-98383503D01*
X142594477Y-98389565D01*
X142599500Y-98424500D01*
X142599500Y-98575500D01*
X142579815Y-98642539D01*
X142527011Y-98688294D01*
X142475500Y-98699500D01*
X142395730Y-98699500D01*
X142365300Y-98702353D01*
X142365298Y-98702353D01*
X142237119Y-98747206D01*
X142237117Y-98747207D01*
X142127850Y-98827850D01*
X142047207Y-98937117D01*
X142047206Y-98937119D01*
X142002353Y-99065298D01*
X142002353Y-99065300D01*
X141999500Y-99095730D01*
X141999500Y-99854269D01*
X142002353Y-99884699D01*
X142002353Y-99884701D01*
X142047206Y-100012880D01*
X142047207Y-100012882D01*
X142127850Y-100122150D01*
X142237118Y-100202793D01*
X142279845Y-100217744D01*
X142365299Y-100247646D01*
X142395730Y-100250500D01*
X142395734Y-100250500D01*
X143404270Y-100250500D01*
X143434699Y-100247646D01*
X143434701Y-100247646D01*
X143498790Y-100225219D01*
X143562882Y-100202793D01*
X143672150Y-100122150D01*
X143752793Y-100012882D01*
X143775219Y-99948790D01*
X143797646Y-99884701D01*
X143797646Y-99884699D01*
X143800500Y-99854269D01*
X143800500Y-99095730D01*
X143797646Y-99065300D01*
X143797646Y-99065298D01*
X143752793Y-98937119D01*
X143752792Y-98937117D01*
X143672150Y-98827850D01*
X143562882Y-98747207D01*
X143562880Y-98747206D01*
X143434700Y-98702353D01*
X143404270Y-98699500D01*
X143404266Y-98699500D01*
X143324500Y-98699500D01*
X143315814Y-98696949D01*
X143306853Y-98698238D01*
X143282812Y-98687259D01*
X143257461Y-98679815D01*
X143251533Y-98672974D01*
X143243297Y-98669213D01*
X143229007Y-98646978D01*
X143211706Y-98627011D01*
X143209418Y-98616496D01*
X143205523Y-98610435D01*
X143200500Y-98575500D01*
X143200500Y-98424500D01*
X143220185Y-98357461D01*
X143272989Y-98311706D01*
X143324500Y-98300500D01*
X143404270Y-98300500D01*
X143434699Y-98297646D01*
X143434701Y-98297646D01*
X143498790Y-98275219D01*
X143562882Y-98252793D01*
X143672150Y-98172150D01*
X143752793Y-98062882D01*
X143775219Y-97998790D01*
X143797646Y-97934701D01*
X143797646Y-97934699D01*
X143800500Y-97904269D01*
X143800500Y-97095730D01*
X143797646Y-97065300D01*
X143797646Y-97065298D01*
X143752793Y-96937118D01*
X143752792Y-96937117D01*
X143737199Y-96915989D01*
X143672150Y-96827850D01*
X143562882Y-96747207D01*
X143562880Y-96747206D01*
X143434700Y-96702353D01*
X143404270Y-96699500D01*
X143404266Y-96699500D01*
X142395734Y-96699500D01*
X142395730Y-96699500D01*
X142365300Y-96702353D01*
X142365298Y-96702353D01*
X142237119Y-96747206D01*
X142237117Y-96747207D01*
X142127850Y-96827850D01*
X142047207Y-96937117D01*
X142047207Y-96937118D01*
X142002353Y-97065298D01*
X142002353Y-97065300D01*
X141999500Y-97095730D01*
X134400500Y-97095730D01*
X134400500Y-95095730D01*
X141999500Y-95095730D01*
X141999500Y-95904269D01*
X142002353Y-95934699D01*
X142002353Y-95934701D01*
X142047206Y-96062880D01*
X142047207Y-96062882D01*
X142127850Y-96172150D01*
X142237118Y-96252793D01*
X142279845Y-96267744D01*
X142365299Y-96297646D01*
X142395730Y-96300500D01*
X142395734Y-96300500D01*
X143404270Y-96300500D01*
X143434699Y-96297646D01*
X143434701Y-96297646D01*
X143498790Y-96275219D01*
X143562882Y-96252793D01*
X143672150Y-96172150D01*
X143752793Y-96062882D01*
X143775219Y-95998790D01*
X143797646Y-95934701D01*
X143797646Y-95934699D01*
X143799689Y-95912921D01*
X143825547Y-95848013D01*
X143882393Y-95807388D01*
X143923147Y-95800500D01*
X143939560Y-95800500D01*
X143939562Y-95800500D01*
X144015989Y-95780021D01*
X144084511Y-95740460D01*
X144140460Y-95684511D01*
X144169970Y-95655001D01*
X145977704Y-95655001D01*
X145977899Y-95657486D01*
X146023718Y-95815198D01*
X146107314Y-95956552D01*
X146107321Y-95956561D01*
X146223438Y-96072678D01*
X146223447Y-96072685D01*
X146364803Y-96156282D01*
X146364806Y-96156283D01*
X146522504Y-96202099D01*
X146522510Y-96202100D01*
X146559350Y-96204999D01*
X146559366Y-96205000D01*
X147200000Y-96205000D01*
X147700000Y-96205000D01*
X148340634Y-96205000D01*
X148340649Y-96204999D01*
X148377489Y-96202100D01*
X148377495Y-96202099D01*
X148535193Y-96156283D01*
X148535196Y-96156282D01*
X148676552Y-96072685D01*
X148676561Y-96072678D01*
X148792678Y-95956561D01*
X148792685Y-95956552D01*
X148876281Y-95815198D01*
X148922100Y-95657486D01*
X148922295Y-95655001D01*
X148922295Y-95655000D01*
X147700000Y-95655000D01*
X147700000Y-96205000D01*
X147200000Y-96205000D01*
X147200000Y-95655000D01*
X145977705Y-95655000D01*
X145977704Y-95655001D01*
X144169970Y-95655001D01*
X144603232Y-95221739D01*
X151224500Y-95221739D01*
X151224500Y-95588260D01*
X151234426Y-95656391D01*
X151285803Y-95761485D01*
X151368514Y-95844196D01*
X151368515Y-95844196D01*
X151368517Y-95844198D01*
X151473607Y-95895573D01*
X151507673Y-95900536D01*
X151541739Y-95905500D01*
X151541740Y-95905500D01*
X153258261Y-95905500D01*
X153280971Y-95902191D01*
X153326393Y-95895573D01*
X153431483Y-95844198D01*
X153514198Y-95761483D01*
X153565573Y-95656393D01*
X153575500Y-95588260D01*
X153575500Y-95221740D01*
X153565573Y-95153607D01*
X153514198Y-95048517D01*
X153514196Y-95048515D01*
X153514196Y-95048514D01*
X153431485Y-94965803D01*
X153423826Y-94962059D01*
X153326393Y-94914427D01*
X153326391Y-94914426D01*
X153258261Y-94904500D01*
X153258260Y-94904500D01*
X151541740Y-94904500D01*
X151541739Y-94904500D01*
X151473608Y-94914426D01*
X151368514Y-94965803D01*
X151285803Y-95048514D01*
X151234426Y-95153608D01*
X151224500Y-95221739D01*
X144603232Y-95221739D01*
X145353152Y-94471819D01*
X145414475Y-94438334D01*
X145440833Y-94435500D01*
X146232003Y-94435500D01*
X146233804Y-94436028D01*
X146235620Y-94435553D01*
X146267201Y-94445835D01*
X146299042Y-94455185D01*
X146300837Y-94456786D01*
X146302057Y-94457184D01*
X146309891Y-94464866D01*
X146328045Y-94481065D01*
X146334681Y-94489191D01*
X146335802Y-94491483D01*
X146339899Y-94495580D01*
X146343846Y-94500413D01*
X146355098Y-94527086D01*
X146368970Y-94552490D01*
X146368512Y-94558883D01*
X146371004Y-94564789D01*
X146366050Y-94593306D01*
X146363986Y-94622182D01*
X146360144Y-94627313D01*
X146359048Y-94633628D01*
X146339459Y-94654944D01*
X146322114Y-94678115D01*
X146311913Y-94684921D01*
X146311772Y-94685075D01*
X146311625Y-94685113D01*
X146310926Y-94685580D01*
X146223444Y-94737317D01*
X146223438Y-94737321D01*
X146107321Y-94853438D01*
X146107314Y-94853447D01*
X146023718Y-94994801D01*
X145977899Y-95152513D01*
X145977704Y-95154998D01*
X145977705Y-95155000D01*
X148922295Y-95155000D01*
X148922295Y-95154999D01*
X148922100Y-95152513D01*
X148876281Y-94994801D01*
X148792685Y-94853447D01*
X148792678Y-94853438D01*
X148676561Y-94737321D01*
X148676552Y-94737314D01*
X148589074Y-94685580D01*
X148541390Y-94634511D01*
X148528887Y-94565769D01*
X148555532Y-94501180D01*
X148564074Y-94491656D01*
X148564195Y-94491486D01*
X148564198Y-94491483D01*
X148615573Y-94386393D01*
X148625500Y-94318260D01*
X148625500Y-93951740D01*
X148625371Y-93950858D01*
X148615573Y-93883608D01*
X148615573Y-93883607D01*
X148564198Y-93778517D01*
X148564196Y-93778515D01*
X148564196Y-93778514D01*
X148481485Y-93695803D01*
X148376391Y-93644426D01*
X148308261Y-93634500D01*
X148308260Y-93634500D01*
X146591740Y-93634500D01*
X146591739Y-93634500D01*
X146523608Y-93644426D01*
X146418514Y-93695803D01*
X146335805Y-93778512D01*
X146332923Y-93782550D01*
X146277949Y-93825674D01*
X146232003Y-93834500D01*
X145225438Y-93834500D01*
X145149010Y-93854978D01*
X145080489Y-93894540D01*
X145080486Y-93894542D01*
X143966242Y-95008786D01*
X143904919Y-95042271D01*
X143835227Y-95037287D01*
X143779294Y-94995415D01*
X143761522Y-94962065D01*
X143752793Y-94937118D01*
X143672150Y-94827850D01*
X143562882Y-94747207D01*
X143562880Y-94747206D01*
X143434700Y-94702353D01*
X143404270Y-94699500D01*
X143404266Y-94699500D01*
X142395734Y-94699500D01*
X142395730Y-94699500D01*
X142365300Y-94702353D01*
X142365298Y-94702353D01*
X142237119Y-94747206D01*
X142237117Y-94747207D01*
X142127850Y-94827850D01*
X142047207Y-94937117D01*
X142047206Y-94937119D01*
X142002353Y-95065298D01*
X142002353Y-95065300D01*
X141999500Y-95095730D01*
X134400500Y-95095730D01*
X134400500Y-93145730D01*
X141974500Y-93145730D01*
X141974500Y-93754269D01*
X141977353Y-93784699D01*
X141977353Y-93784701D01*
X142019192Y-93904266D01*
X142022207Y-93912882D01*
X142102850Y-94022150D01*
X142212118Y-94102793D01*
X142254845Y-94117744D01*
X142340299Y-94147646D01*
X142370730Y-94150500D01*
X142370734Y-94150500D01*
X143429270Y-94150500D01*
X143459699Y-94147646D01*
X143459701Y-94147646D01*
X143523790Y-94125219D01*
X143587882Y-94102793D01*
X143697150Y-94022150D01*
X143777793Y-93912882D01*
X143798054Y-93854979D01*
X143805555Y-93833544D01*
X143846277Y-93776769D01*
X143911230Y-93751022D01*
X143922596Y-93750500D01*
X144589560Y-93750500D01*
X144589562Y-93750500D01*
X144665989Y-93730021D01*
X144734511Y-93690460D01*
X144790460Y-93634511D01*
X145223152Y-93201819D01*
X145284475Y-93168334D01*
X145310833Y-93165500D01*
X146232003Y-93165500D01*
X146299042Y-93185185D01*
X146332923Y-93217450D01*
X146335805Y-93221487D01*
X146418514Y-93304196D01*
X146418515Y-93304196D01*
X146418517Y-93304198D01*
X146523607Y-93355573D01*
X146553442Y-93359920D01*
X146591739Y-93365500D01*
X146591740Y-93365500D01*
X148308261Y-93365500D01*
X148330971Y-93362191D01*
X148376393Y-93355573D01*
X148481483Y-93304198D01*
X148564198Y-93221483D01*
X148564200Y-93221477D01*
X148567077Y-93217450D01*
X148622051Y-93174326D01*
X148667997Y-93165500D01*
X149979168Y-93165500D01*
X150046207Y-93185185D01*
X150066849Y-93201819D01*
X151205103Y-94340073D01*
X151228359Y-94378640D01*
X151230198Y-94377742D01*
X151285803Y-94491485D01*
X151368514Y-94574196D01*
X151368515Y-94574196D01*
X151368517Y-94574198D01*
X151473607Y-94625573D01*
X151507673Y-94630536D01*
X151541739Y-94635500D01*
X151541740Y-94635500D01*
X153258261Y-94635500D01*
X153280971Y-94632191D01*
X153326393Y-94625573D01*
X153431483Y-94574198D01*
X153452674Y-94553006D01*
X153513995Y-94519522D01*
X153583687Y-94524505D01*
X153628036Y-94553007D01*
X154563181Y-95488152D01*
X154596666Y-95549475D01*
X154599500Y-95575833D01*
X154599500Y-96839562D01*
X154619979Y-96915989D01*
X154632178Y-96937118D01*
X154632178Y-96937119D01*
X154659537Y-96984507D01*
X154659539Y-96984510D01*
X154659540Y-96984511D01*
X155359540Y-97684511D01*
X155415489Y-97740460D01*
X155415491Y-97740461D01*
X155415495Y-97740464D01*
X155484004Y-97780017D01*
X155484011Y-97780021D01*
X155560438Y-97800500D01*
X155876853Y-97800500D01*
X155943892Y-97820185D01*
X155989647Y-97872989D01*
X156000311Y-97912921D01*
X156002353Y-97934699D01*
X156002353Y-97934701D01*
X156047206Y-98062880D01*
X156047207Y-98062882D01*
X156127850Y-98172150D01*
X156237118Y-98252793D01*
X156279845Y-98267744D01*
X156365299Y-98297646D01*
X156395730Y-98300500D01*
X156395734Y-98300500D01*
X157404270Y-98300500D01*
X157434699Y-98297646D01*
X157434701Y-98297646D01*
X157498790Y-98275219D01*
X157562882Y-98252793D01*
X157672150Y-98172150D01*
X157752793Y-98062882D01*
X157775219Y-97998790D01*
X157797646Y-97934701D01*
X157797646Y-97934699D01*
X157800500Y-97904269D01*
X157800500Y-97095730D01*
X157797646Y-97065300D01*
X157797646Y-97065298D01*
X157752793Y-96937118D01*
X157752792Y-96937117D01*
X157737199Y-96915989D01*
X157672150Y-96827850D01*
X157562882Y-96747207D01*
X157562880Y-96747206D01*
X157434700Y-96702353D01*
X157404270Y-96699500D01*
X157404266Y-96699500D01*
X156395734Y-96699500D01*
X156395730Y-96699500D01*
X156365300Y-96702353D01*
X156365298Y-96702353D01*
X156237119Y-96747206D01*
X156237117Y-96747207D01*
X156127850Y-96827850D01*
X156047207Y-96937117D01*
X156047207Y-96937118D01*
X156002353Y-97065298D01*
X156002353Y-97065300D01*
X156000311Y-97087079D01*
X155999140Y-97090016D01*
X155999591Y-97093147D01*
X155986296Y-97122259D01*
X155974453Y-97151987D01*
X155971879Y-97153825D01*
X155970566Y-97156703D01*
X155943645Y-97174003D01*
X155917607Y-97192612D01*
X155913649Y-97193280D01*
X155911788Y-97194477D01*
X155876853Y-97199500D01*
X155775833Y-97199500D01*
X155708794Y-97179815D01*
X155688152Y-97163181D01*
X155236819Y-96711848D01*
X155203334Y-96650525D01*
X155200500Y-96624167D01*
X155200500Y-95360439D01*
X155180020Y-95284009D01*
X155180017Y-95284004D01*
X155140464Y-95215495D01*
X155140458Y-95215487D01*
X153937152Y-94012181D01*
X153903667Y-93950858D01*
X153908651Y-93881166D01*
X153950523Y-93825233D01*
X154015987Y-93800816D01*
X154024833Y-93800500D01*
X154039562Y-93800500D01*
X155876853Y-93800500D01*
X155943892Y-93820185D01*
X155989647Y-93872989D01*
X156000311Y-93912921D01*
X156002353Y-93934699D01*
X156002353Y-93934701D01*
X156032954Y-94022150D01*
X156047207Y-94062882D01*
X156127850Y-94172150D01*
X156237118Y-94252793D01*
X156279845Y-94267744D01*
X156365299Y-94297646D01*
X156395730Y-94300500D01*
X156395734Y-94300500D01*
X156475500Y-94300500D01*
X156484185Y-94303050D01*
X156493147Y-94301762D01*
X156517187Y-94312740D01*
X156542539Y-94320185D01*
X156548466Y-94327025D01*
X156556703Y-94330787D01*
X156570992Y-94353021D01*
X156588294Y-94372989D01*
X156590581Y-94383503D01*
X156594477Y-94389565D01*
X156599500Y-94424500D01*
X156599500Y-94575500D01*
X156579815Y-94642539D01*
X156527011Y-94688294D01*
X156475500Y-94699500D01*
X156395730Y-94699500D01*
X156365300Y-94702353D01*
X156365298Y-94702353D01*
X156237119Y-94747206D01*
X156237117Y-94747207D01*
X156127850Y-94827850D01*
X156047207Y-94937117D01*
X156047206Y-94937119D01*
X156002353Y-95065298D01*
X156002353Y-95065300D01*
X155999500Y-95095730D01*
X155999500Y-95904269D01*
X156002353Y-95934699D01*
X156002353Y-95934701D01*
X156047206Y-96062880D01*
X156047207Y-96062882D01*
X156127850Y-96172150D01*
X156237118Y-96252793D01*
X156279845Y-96267744D01*
X156365299Y-96297646D01*
X156395730Y-96300500D01*
X156395734Y-96300500D01*
X157404270Y-96300500D01*
X157434699Y-96297646D01*
X157434701Y-96297646D01*
X157498790Y-96275219D01*
X157562882Y-96252793D01*
X157672150Y-96172150D01*
X157752793Y-96062882D01*
X157775219Y-95998790D01*
X157797646Y-95934701D01*
X157797646Y-95934699D01*
X157800500Y-95904269D01*
X157800500Y-95095730D01*
X157797646Y-95065300D01*
X157797646Y-95065298D01*
X157752793Y-94937119D01*
X157752792Y-94937117D01*
X157672150Y-94827850D01*
X157562882Y-94747207D01*
X157562880Y-94747206D01*
X157434700Y-94702353D01*
X157404270Y-94699500D01*
X157404266Y-94699500D01*
X157324500Y-94699500D01*
X157315814Y-94696949D01*
X157306853Y-94698238D01*
X157282812Y-94687259D01*
X157257461Y-94679815D01*
X157251533Y-94672974D01*
X157243297Y-94669213D01*
X157229007Y-94646978D01*
X157211706Y-94627011D01*
X157209418Y-94616496D01*
X157205523Y-94610435D01*
X157200500Y-94575500D01*
X157200500Y-94424500D01*
X157220185Y-94357461D01*
X157272989Y-94311706D01*
X157324500Y-94300500D01*
X157404270Y-94300500D01*
X157434699Y-94297646D01*
X157434701Y-94297646D01*
X157498790Y-94275219D01*
X157562882Y-94252793D01*
X157672150Y-94172150D01*
X157752793Y-94062882D01*
X157775219Y-93998790D01*
X157797646Y-93934701D01*
X157797646Y-93934699D01*
X157800500Y-93904269D01*
X157800500Y-93095730D01*
X157797646Y-93065300D01*
X157797646Y-93065298D01*
X157752793Y-92937119D01*
X157752792Y-92937117D01*
X157709051Y-92877850D01*
X157672150Y-92827850D01*
X157589396Y-92766775D01*
X157547147Y-92711129D01*
X157541688Y-92641472D01*
X157574756Y-92579923D01*
X157624028Y-92549300D01*
X157669117Y-92534359D01*
X157669124Y-92534356D01*
X157818345Y-92442315D01*
X157942315Y-92318345D01*
X158034356Y-92169124D01*
X158034358Y-92169119D01*
X158089505Y-92002697D01*
X158089506Y-92002690D01*
X158099999Y-91899986D01*
X158100000Y-91899973D01*
X158100000Y-91750000D01*
X155700001Y-91750000D01*
X155700001Y-91899986D01*
X155710494Y-92002697D01*
X155765641Y-92169119D01*
X155765643Y-92169124D01*
X155857684Y-92318345D01*
X155981654Y-92442315D01*
X156130875Y-92534356D01*
X156130880Y-92534358D01*
X156175972Y-92549300D01*
X156233417Y-92589072D01*
X156260240Y-92653588D01*
X156247925Y-92722364D01*
X156210602Y-92766776D01*
X156127850Y-92827850D01*
X156047207Y-92937117D01*
X156047206Y-92937119D01*
X156002353Y-93065298D01*
X156002353Y-93065300D01*
X156000311Y-93087079D01*
X155974453Y-93151987D01*
X155917607Y-93192612D01*
X155876853Y-93199500D01*
X154175833Y-93199500D01*
X154108794Y-93179815D01*
X154088152Y-93163181D01*
X153599269Y-92674298D01*
X153576586Y-92643148D01*
X153567209Y-92624842D01*
X153565573Y-92613607D01*
X153514198Y-92508517D01*
X153500723Y-92495042D01*
X153491831Y-92477682D01*
X153488802Y-92461745D01*
X153481029Y-92447509D01*
X153482415Y-92428128D01*
X153478788Y-92409040D01*
X153484855Y-92393997D01*
X153486013Y-92377817D01*
X153497657Y-92362261D01*
X153504926Y-92344244D01*
X153518163Y-92334869D01*
X153527885Y-92321884D01*
X153539075Y-92314419D01*
X153626550Y-92262687D01*
X153626561Y-92262678D01*
X153742678Y-92146561D01*
X153742685Y-92146552D01*
X153826281Y-92005198D01*
X153872100Y-91847486D01*
X153872295Y-91845001D01*
X153872295Y-91845000D01*
X150927705Y-91845000D01*
X150927704Y-91845001D01*
X150927899Y-91847486D01*
X150973718Y-92005198D01*
X151057314Y-92146552D01*
X151057321Y-92146561D01*
X151173438Y-92262678D01*
X151173446Y-92262684D01*
X151260925Y-92314419D01*
X151308608Y-92365488D01*
X151321112Y-92434230D01*
X151294467Y-92498819D01*
X151285927Y-92508340D01*
X151285804Y-92508513D01*
X151234427Y-92613607D01*
X151224500Y-92681739D01*
X151224500Y-93048260D01*
X151234426Y-93116391D01*
X151285803Y-93221485D01*
X151288334Y-93225030D01*
X151290294Y-93230671D01*
X151290315Y-93230714D01*
X151290309Y-93230716D01*
X151308931Y-93284307D01*
X151352345Y-93293752D01*
X151364971Y-93301666D01*
X151368515Y-93304196D01*
X151368517Y-93304198D01*
X151473607Y-93355573D01*
X151503442Y-93359920D01*
X151541739Y-93365500D01*
X151541740Y-93365500D01*
X153258261Y-93365500D01*
X153280971Y-93362191D01*
X153326393Y-93355573D01*
X153326396Y-93355571D01*
X153334574Y-93353045D01*
X153348906Y-93352842D01*
X153362338Y-93347833D01*
X153383145Y-93352359D01*
X153404436Y-93352059D01*
X153417900Y-93359920D01*
X153430611Y-93362685D01*
X153458865Y-93383836D01*
X153569956Y-93494927D01*
X153603441Y-93556250D01*
X153598457Y-93625942D01*
X153556585Y-93681875D01*
X153491121Y-93706292D01*
X153427815Y-93694009D01*
X153420555Y-93690460D01*
X153338580Y-93650385D01*
X153326391Y-93644426D01*
X153258261Y-93634500D01*
X153258260Y-93634500D01*
X151541740Y-93634500D01*
X151541739Y-93634500D01*
X151473608Y-93644426D01*
X151464405Y-93647270D01*
X151463768Y-93645208D01*
X151453042Y-93647038D01*
X151430822Y-93655326D01*
X151419233Y-93652804D01*
X151407543Y-93654799D01*
X151385722Y-93645515D01*
X151362549Y-93640474D01*
X151347637Y-93629311D01*
X151343251Y-93627445D01*
X151334295Y-93619323D01*
X151205237Y-93490265D01*
X151171752Y-93428942D01*
X151172448Y-93419204D01*
X151110883Y-93394646D01*
X151099734Y-93384762D01*
X150339513Y-92624541D01*
X150339512Y-92624540D01*
X150320575Y-92613607D01*
X150320575Y-92613605D01*
X150320572Y-92613605D01*
X150270995Y-92584981D01*
X150270992Y-92584979D01*
X150232776Y-92574739D01*
X150194563Y-92564500D01*
X150194561Y-92564500D01*
X148667997Y-92564500D01*
X148600958Y-92544815D01*
X148567077Y-92512550D01*
X148564194Y-92508512D01*
X148481485Y-92425803D01*
X148376391Y-92374426D01*
X148308261Y-92364500D01*
X148308260Y-92364500D01*
X146591740Y-92364500D01*
X146591739Y-92364500D01*
X146523608Y-92374426D01*
X146418514Y-92425803D01*
X146335805Y-92508512D01*
X146332923Y-92512550D01*
X146277949Y-92555674D01*
X146232003Y-92564500D01*
X145095438Y-92564500D01*
X145064867Y-92572691D01*
X145019008Y-92584979D01*
X145019007Y-92584980D01*
X144969427Y-92613606D01*
X144969426Y-92613607D01*
X144950490Y-92624539D01*
X144950487Y-92624541D01*
X144461848Y-93113181D01*
X144400525Y-93146666D01*
X144374167Y-93149500D01*
X143922596Y-93149500D01*
X143855557Y-93129815D01*
X143809802Y-93077011D01*
X143805555Y-93066456D01*
X143777793Y-92987119D01*
X143777793Y-92987118D01*
X143697150Y-92877850D01*
X143587882Y-92797207D01*
X143587880Y-92797206D01*
X143459700Y-92752353D01*
X143429270Y-92749500D01*
X143429266Y-92749500D01*
X142370734Y-92749500D01*
X142370730Y-92749500D01*
X142340300Y-92752353D01*
X142340298Y-92752353D01*
X142212119Y-92797206D01*
X142212117Y-92797207D01*
X142102850Y-92877850D01*
X142022207Y-92987117D01*
X142022206Y-92987119D01*
X141977353Y-93115298D01*
X141977353Y-93115300D01*
X141974500Y-93145730D01*
X134400500Y-93145730D01*
X134400500Y-91245730D01*
X141974500Y-91245730D01*
X141974500Y-91854269D01*
X141977353Y-91884699D01*
X141977353Y-91884701D01*
X142018643Y-92002697D01*
X142022207Y-92012882D01*
X142102850Y-92122150D01*
X142212118Y-92202793D01*
X142254845Y-92217744D01*
X142340299Y-92247646D01*
X142370730Y-92250500D01*
X142370734Y-92250500D01*
X143429270Y-92250500D01*
X143459699Y-92247646D01*
X143459701Y-92247646D01*
X143523790Y-92225219D01*
X143587882Y-92202793D01*
X143697150Y-92122150D01*
X143777793Y-92012882D01*
X143817297Y-91899986D01*
X143822646Y-91884701D01*
X143822646Y-91884699D01*
X143825500Y-91854269D01*
X143825500Y-91411739D01*
X146274500Y-91411739D01*
X146274500Y-91778260D01*
X146284426Y-91846391D01*
X146335803Y-91951485D01*
X146418514Y-92034196D01*
X146418515Y-92034196D01*
X146418517Y-92034198D01*
X146523607Y-92085573D01*
X146557673Y-92090536D01*
X146591739Y-92095500D01*
X146591740Y-92095500D01*
X148308261Y-92095500D01*
X148330971Y-92092191D01*
X148376393Y-92085573D01*
X148481483Y-92034198D01*
X148564198Y-91951483D01*
X148615573Y-91846393D01*
X148625500Y-91778260D01*
X148625500Y-91411740D01*
X148615776Y-91344998D01*
X150927704Y-91344998D01*
X150927705Y-91345000D01*
X152150000Y-91345000D01*
X152650000Y-91345000D01*
X153872295Y-91345000D01*
X153872295Y-91344998D01*
X153872100Y-91342513D01*
X153826281Y-91184801D01*
X153811605Y-91159985D01*
X153776137Y-91100013D01*
X155700000Y-91100013D01*
X155700000Y-91250000D01*
X156650000Y-91250000D01*
X157150000Y-91250000D01*
X158099999Y-91250000D01*
X158099999Y-91100028D01*
X158099998Y-91100013D01*
X158089505Y-90997302D01*
X158034358Y-90830880D01*
X158034356Y-90830875D01*
X157942315Y-90681654D01*
X157818345Y-90557684D01*
X157669124Y-90465643D01*
X157669119Y-90465641D01*
X157502697Y-90410494D01*
X157502690Y-90410493D01*
X157399986Y-90400000D01*
X157150000Y-90400000D01*
X157150000Y-91250000D01*
X156650000Y-91250000D01*
X156650000Y-90400000D01*
X156400029Y-90400000D01*
X156400012Y-90400001D01*
X156297302Y-90410494D01*
X156130880Y-90465641D01*
X156130875Y-90465643D01*
X155981654Y-90557684D01*
X155857684Y-90681654D01*
X155765643Y-90830875D01*
X155765641Y-90830880D01*
X155710494Y-90997302D01*
X155710493Y-90997309D01*
X155700000Y-91100013D01*
X153776137Y-91100013D01*
X153742684Y-91043447D01*
X153742678Y-91043438D01*
X153626561Y-90927321D01*
X153626552Y-90927314D01*
X153485196Y-90843717D01*
X153485193Y-90843716D01*
X153327495Y-90797900D01*
X153327489Y-90797899D01*
X153290649Y-90795000D01*
X152650000Y-90795000D01*
X152650000Y-91345000D01*
X152150000Y-91345000D01*
X152150000Y-90795000D01*
X151509350Y-90795000D01*
X151472510Y-90797899D01*
X151472504Y-90797900D01*
X151314806Y-90843716D01*
X151314803Y-90843717D01*
X151173447Y-90927314D01*
X151173438Y-90927321D01*
X151057321Y-91043438D01*
X151057314Y-91043447D01*
X150973718Y-91184801D01*
X150927899Y-91342513D01*
X150927704Y-91344998D01*
X148615776Y-91344998D01*
X148615573Y-91343607D01*
X148564198Y-91238517D01*
X148564196Y-91238515D01*
X148564196Y-91238514D01*
X148481485Y-91155803D01*
X148376391Y-91104426D01*
X148308261Y-91094500D01*
X148308260Y-91094500D01*
X147874500Y-91094500D01*
X147807461Y-91074815D01*
X147761706Y-91022011D01*
X147750500Y-90970500D01*
X147750500Y-89908676D01*
X147770185Y-89841637D01*
X147786819Y-89820995D01*
X147800500Y-89807314D01*
X147866392Y-89693186D01*
X147900500Y-89565892D01*
X147900500Y-89434108D01*
X147866392Y-89306814D01*
X147800500Y-89192686D01*
X147707314Y-89099500D01*
X147650250Y-89066554D01*
X147593187Y-89033608D01*
X147529539Y-89016554D01*
X147465892Y-88999500D01*
X147334108Y-88999500D01*
X147206812Y-89033608D01*
X147092686Y-89099500D01*
X147092683Y-89099502D01*
X146999502Y-89192683D01*
X146999500Y-89192686D01*
X146933608Y-89306812D01*
X146899500Y-89434108D01*
X146899500Y-89565891D01*
X146933608Y-89693187D01*
X146966554Y-89750250D01*
X146999500Y-89807314D01*
X147092686Y-89900500D01*
X147092688Y-89900501D01*
X147099137Y-89905450D01*
X147097324Y-89907812D01*
X147135710Y-89948062D01*
X147149500Y-90004893D01*
X147149500Y-90970500D01*
X147129815Y-91037539D01*
X147077011Y-91083294D01*
X147025500Y-91094500D01*
X146591739Y-91094500D01*
X146523608Y-91104426D01*
X146418514Y-91155803D01*
X146335803Y-91238514D01*
X146284426Y-91343608D01*
X146274500Y-91411739D01*
X143825500Y-91411739D01*
X143825500Y-91245730D01*
X143822646Y-91215300D01*
X143822646Y-91215298D01*
X143789006Y-91119163D01*
X143777793Y-91087118D01*
X143697150Y-90977850D01*
X143587882Y-90897207D01*
X143587880Y-90897206D01*
X143459700Y-90852353D01*
X143429270Y-90849500D01*
X143429266Y-90849500D01*
X143324500Y-90849500D01*
X143257461Y-90829815D01*
X143211706Y-90777011D01*
X143200500Y-90725500D01*
X143200500Y-90158676D01*
X143220185Y-90091637D01*
X143236819Y-90070995D01*
X143300500Y-90007314D01*
X143366392Y-89893186D01*
X143400500Y-89765892D01*
X143400500Y-89634108D01*
X143366392Y-89506814D01*
X143300500Y-89392686D01*
X143207314Y-89299500D01*
X143150250Y-89266554D01*
X143093187Y-89233608D01*
X143029539Y-89216554D01*
X142965892Y-89199500D01*
X142834108Y-89199500D01*
X142706812Y-89233608D01*
X142592686Y-89299500D01*
X142592683Y-89299502D01*
X142499502Y-89392683D01*
X142499500Y-89392686D01*
X142433608Y-89506812D01*
X142417778Y-89565892D01*
X142399500Y-89634108D01*
X142399500Y-89765892D01*
X142414265Y-89820995D01*
X142433608Y-89893187D01*
X142442052Y-89907812D01*
X142499500Y-90007314D01*
X142499502Y-90007316D01*
X142563181Y-90070995D01*
X142596666Y-90132318D01*
X142599500Y-90158676D01*
X142599500Y-90725500D01*
X142579815Y-90792539D01*
X142527011Y-90838294D01*
X142475500Y-90849500D01*
X142370730Y-90849500D01*
X142340300Y-90852353D01*
X142340298Y-90852353D01*
X142212119Y-90897206D01*
X142212117Y-90897207D01*
X142102850Y-90977850D01*
X142022207Y-91087117D01*
X142022206Y-91087119D01*
X141977353Y-91215298D01*
X141977353Y-91215300D01*
X141974500Y-91245730D01*
X134400500Y-91245730D01*
X134400500Y-79124500D01*
X134420185Y-79057461D01*
X134472989Y-79011706D01*
X134524500Y-79000500D01*
X165775500Y-79000500D01*
X165842539Y-79020185D01*
G37*
%TD.AperFunction*%
%TD*%
M02*
