%TF.GenerationSoftware,KiCad,Pcbnew,9.0.2*%
%TF.CreationDate,2025-08-02T09:46:46-05:00*%
%TF.ProjectId,GettingToBlinky_5.0,47657474-696e-4675-946f-426c696e6b79,rev?*%
%TF.SameCoordinates,Original*%
%TF.FileFunction,Copper,L2,Bot*%
%TF.FilePolarity,Positive*%
%FSLAX46Y46*%
G04 Gerber Fmt 4.6, Leading zero omitted, Abs format (unit mm)*
G04 Created by KiCad (PCBNEW 9.0.2) date 2025-08-02 09:46:46*
%MOMM*%
%LPD*%
G01*
G04 APERTURE LIST*
G04 Aperture macros list*
%AMOutline4P*
0 Free polygon, 4 corners , with rotation*
0 The origin of the aperture is its center*
0 number of corners: always 4*
0 $1 to $8 corner X, Y*
0 $9 Rotation angle, in degrees counterclockwise*
0 create outline with 4 corners*
4,1,4,$1,$2,$3,$4,$5,$6,$7,$8,$1,$2,$9*%
G04 Aperture macros list end*
%TA.AperFunction,SMDPad,CuDef*%
%ADD10R,5.500000X5.500000*%
%TD*%
%TA.AperFunction,SMDPad,CuDef*%
%ADD11Outline4P,-2.750000X-2.750000X2.750000X-2.750000X2.750000X2.750000X-2.750000X2.750000X180.000000*%
%TD*%
%TA.AperFunction,SMDPad,CuDef*%
%ADD12R,4.000000X4.000000*%
%TD*%
%TA.AperFunction,ViaPad*%
%ADD13C,0.600000*%
%TD*%
%TA.AperFunction,Conductor*%
%ADD14C,0.200000*%
%TD*%
G04 APERTURE END LIST*
D10*
%TO.P,BT1,1,+*%
%TO.N,/VDD*%
X162800000Y-93800000D03*
D11*
X137200000Y-93800000D03*
D12*
%TO.P,BT1,2,-*%
%TO.N,GND*%
X150000000Y-93800000D03*
%TD*%
D13*
%TO.N,GND*%
X142900000Y-104000000D03*
X147400000Y-89500000D03*
X142900000Y-89700000D03*
%TO.N,/VDD*%
X162200000Y-88600000D03*
X138200000Y-88100000D03*
%TD*%
D14*
%TO.N,/VDD*%
X162900000Y-93500000D02*
X162900000Y-89300000D01*
X162900000Y-89300000D02*
X162200000Y-88600000D01*
X137300000Y-93500000D02*
X137300000Y-89000000D01*
X137300000Y-89000000D02*
X138200000Y-88100000D01*
%TD*%
%TA.AperFunction,Conductor*%
%TO.N,GND*%
G36*
X165842539Y-79020185D02*
G01*
X165888294Y-79072989D01*
X165899500Y-79124500D01*
X165899500Y-90811033D01*
X165879815Y-90878072D01*
X165827011Y-90923827D01*
X165757853Y-90933771D01*
X165706106Y-90910139D01*
X165704707Y-90912233D01*
X165628230Y-90861132D01*
X165628229Y-90861131D01*
X165569752Y-90849500D01*
X165569748Y-90849500D01*
X163324500Y-90849500D01*
X163257461Y-90829815D01*
X163211706Y-90777011D01*
X163200500Y-90725500D01*
X163200500Y-89260439D01*
X163180020Y-89184009D01*
X163180017Y-89184004D01*
X163140464Y-89115495D01*
X163140458Y-89115487D01*
X162736819Y-88711848D01*
X162703334Y-88650525D01*
X162700500Y-88624167D01*
X162700500Y-88534110D01*
X162700500Y-88534108D01*
X162666392Y-88406814D01*
X162600500Y-88292686D01*
X162507314Y-88199500D01*
X162449100Y-88165890D01*
X162393187Y-88133608D01*
X162329539Y-88116554D01*
X162265892Y-88099500D01*
X162134108Y-88099500D01*
X162006812Y-88133608D01*
X161892686Y-88199500D01*
X161892683Y-88199502D01*
X161799502Y-88292683D01*
X161799500Y-88292686D01*
X161733608Y-88406812D01*
X161733473Y-88407316D01*
X161699500Y-88534108D01*
X161699500Y-88665892D01*
X161711814Y-88711848D01*
X161733608Y-88793187D01*
X161746488Y-88815495D01*
X161799500Y-88907314D01*
X161892686Y-89000500D01*
X162006814Y-89066392D01*
X162134108Y-89100500D01*
X162134110Y-89100500D01*
X162224167Y-89100500D01*
X162291206Y-89120185D01*
X162311848Y-89136819D01*
X162563181Y-89388152D01*
X162596666Y-89449475D01*
X162599500Y-89475833D01*
X162599500Y-90725500D01*
X162579815Y-90792539D01*
X162527011Y-90838294D01*
X162475500Y-90849500D01*
X160030247Y-90849500D01*
X159971770Y-90861131D01*
X159971769Y-90861132D01*
X159905447Y-90905447D01*
X159861132Y-90971769D01*
X159861131Y-90971770D01*
X159849500Y-91030247D01*
X159849500Y-96569752D01*
X159861131Y-96628229D01*
X159861132Y-96628230D01*
X159905447Y-96694552D01*
X159971769Y-96738867D01*
X159971770Y-96738868D01*
X160030247Y-96750499D01*
X160030250Y-96750500D01*
X160030252Y-96750500D01*
X165569750Y-96750500D01*
X165569751Y-96750499D01*
X165584568Y-96747552D01*
X165628229Y-96738868D01*
X165628229Y-96738867D01*
X165628231Y-96738867D01*
X165694552Y-96694552D01*
X165694551Y-96694552D01*
X165704707Y-96687767D01*
X165706810Y-96690915D01*
X165749142Y-96667801D01*
X165818834Y-96672785D01*
X165874767Y-96714657D01*
X165899184Y-96780121D01*
X165899500Y-96788967D01*
X165899500Y-110375500D01*
X165879815Y-110442539D01*
X165827011Y-110488294D01*
X165775500Y-110499500D01*
X134524500Y-110499500D01*
X134457461Y-110479815D01*
X134411706Y-110427011D01*
X134400500Y-110375500D01*
X134400500Y-96874500D01*
X134420185Y-96807461D01*
X134472989Y-96761706D01*
X134524500Y-96750500D01*
X139969750Y-96750500D01*
X139969751Y-96750499D01*
X139984568Y-96747552D01*
X140028229Y-96738868D01*
X140028229Y-96738867D01*
X140028231Y-96738867D01*
X140094552Y-96694552D01*
X140138867Y-96628231D01*
X140138867Y-96628229D01*
X140138868Y-96628229D01*
X140150499Y-96569752D01*
X140150500Y-96569750D01*
X140150500Y-96284720D01*
X147868829Y-96284720D01*
X147868829Y-96284722D01*
X147892622Y-96293597D01*
X147892623Y-96293598D01*
X147952155Y-96299999D01*
X147952172Y-96300000D01*
X152047828Y-96300000D01*
X152047844Y-96299999D01*
X152107372Y-96293598D01*
X152131169Y-96284721D01*
X150000000Y-94153552D01*
X147868829Y-96284720D01*
X140150500Y-96284720D01*
X140150500Y-91752155D01*
X147500000Y-91752155D01*
X147500000Y-95847844D01*
X147506401Y-95907375D01*
X147515277Y-95931170D01*
X149646448Y-93800000D01*
X149646448Y-93799999D01*
X150353552Y-93799999D01*
X150353552Y-93800000D01*
X152484721Y-95931169D01*
X152493598Y-95907372D01*
X152499999Y-95847844D01*
X152500000Y-95847827D01*
X152500000Y-91752172D01*
X152499999Y-91752155D01*
X152493598Y-91692623D01*
X152493597Y-91692622D01*
X152484722Y-91668829D01*
X152484720Y-91668829D01*
X150353552Y-93799999D01*
X149646448Y-93799999D01*
X147515277Y-91668829D01*
X147506402Y-91692623D01*
X147506401Y-91692627D01*
X147500000Y-91752155D01*
X140150500Y-91752155D01*
X140150500Y-91315277D01*
X147868829Y-91315277D01*
X150000000Y-93446448D01*
X150000001Y-93446448D01*
X152131170Y-91315277D01*
X152131170Y-91315276D01*
X152107375Y-91306401D01*
X152047844Y-91300000D01*
X147952155Y-91300000D01*
X147892627Y-91306401D01*
X147892623Y-91306402D01*
X147868829Y-91315277D01*
X140150500Y-91315277D01*
X140150500Y-91030249D01*
X140150499Y-91030247D01*
X140138868Y-90971770D01*
X140138867Y-90971769D01*
X140094552Y-90905447D01*
X140028230Y-90861132D01*
X140028229Y-90861131D01*
X139969752Y-90849500D01*
X139969748Y-90849500D01*
X137724500Y-90849500D01*
X137657461Y-90829815D01*
X137611706Y-90777011D01*
X137600500Y-90725500D01*
X137600500Y-89175832D01*
X137620185Y-89108793D01*
X137636815Y-89088155D01*
X138088151Y-88636818D01*
X138149474Y-88603334D01*
X138175832Y-88600500D01*
X138265890Y-88600500D01*
X138265892Y-88600500D01*
X138393186Y-88566392D01*
X138507314Y-88500500D01*
X138600500Y-88407314D01*
X138666392Y-88293186D01*
X138700500Y-88165892D01*
X138700500Y-88034108D01*
X138666392Y-87906814D01*
X138600500Y-87792686D01*
X138507314Y-87699500D01*
X138450250Y-87666554D01*
X138393187Y-87633608D01*
X138329539Y-87616554D01*
X138265892Y-87599500D01*
X138134108Y-87599500D01*
X138006812Y-87633608D01*
X137892686Y-87699500D01*
X137892683Y-87699502D01*
X137799502Y-87792683D01*
X137799500Y-87792686D01*
X137733608Y-87906812D01*
X137699500Y-88034108D01*
X137699500Y-88124166D01*
X137679815Y-88191205D01*
X137663181Y-88211847D01*
X137115489Y-88759540D01*
X137059541Y-88815487D01*
X137059535Y-88815495D01*
X137019982Y-88884004D01*
X137019979Y-88884009D01*
X136999500Y-88960439D01*
X136999500Y-90725500D01*
X136979815Y-90792539D01*
X136927011Y-90838294D01*
X136875500Y-90849500D01*
X134524500Y-90849500D01*
X134457461Y-90829815D01*
X134411706Y-90777011D01*
X134400500Y-90725500D01*
X134400500Y-79124500D01*
X134420185Y-79057461D01*
X134472989Y-79011706D01*
X134524500Y-79000500D01*
X165775500Y-79000500D01*
X165842539Y-79020185D01*
G37*
%TD.AperFunction*%
%TD*%
M02*
