%TF.GenerationSoftware,KiCad,Pcbnew,9.0.2*%
%TF.CreationDate,2025-08-02T09:46:46-05:00*%
%TF.ProjectId,GettingToBlinky_5.0,47657474-696e-4675-946f-426c696e6b79,rev?*%
%TF.SameCoordinates,Original*%
%TF.FileFunction,Legend,Bot*%
%TF.FilePolarity,Positive*%
%FSLAX46Y46*%
G04 Gerber Fmt 4.6, Leading zero omitted, Abs format (unit mm)*
G04 Created by KiCad (PCBNEW 9.0.2) date 2025-08-02 09:46:46*
%MOMM*%
%LPD*%
G01*
G04 APERTURE LIST*
%ADD10C,0.100000*%
G04 APERTURE END LIST*
D10*
X150985714Y-87733609D02*
X150842857Y-87781228D01*
X150842857Y-87781228D02*
X150795238Y-87828847D01*
X150795238Y-87828847D02*
X150747619Y-87924085D01*
X150747619Y-87924085D02*
X150747619Y-88066942D01*
X150747619Y-88066942D02*
X150795238Y-88162180D01*
X150795238Y-88162180D02*
X150842857Y-88209800D01*
X150842857Y-88209800D02*
X150938095Y-88257419D01*
X150938095Y-88257419D02*
X151319047Y-88257419D01*
X151319047Y-88257419D02*
X151319047Y-87257419D01*
X151319047Y-87257419D02*
X150985714Y-87257419D01*
X150985714Y-87257419D02*
X150890476Y-87305038D01*
X150890476Y-87305038D02*
X150842857Y-87352657D01*
X150842857Y-87352657D02*
X150795238Y-87447895D01*
X150795238Y-87447895D02*
X150795238Y-87543133D01*
X150795238Y-87543133D02*
X150842857Y-87638371D01*
X150842857Y-87638371D02*
X150890476Y-87685990D01*
X150890476Y-87685990D02*
X150985714Y-87733609D01*
X150985714Y-87733609D02*
X151319047Y-87733609D01*
X150461904Y-87257419D02*
X149890476Y-87257419D01*
X150176190Y-88257419D02*
X150176190Y-87257419D01*
X149033333Y-88257419D02*
X149604761Y-88257419D01*
X149319047Y-88257419D02*
X149319047Y-87257419D01*
X149319047Y-87257419D02*
X149414285Y-87400276D01*
X149414285Y-87400276D02*
X149509523Y-87495514D01*
X149509523Y-87495514D02*
X149604761Y-87543133D01*
%TO.C,BT1*%
X134300000Y-79300000D02*
X134500000Y-79300000D01*
X134300000Y-110300000D02*
X134300000Y-79300000D01*
X134500000Y-79300000D02*
X165500000Y-79300000D01*
X140100000Y-85300000D02*
X159900000Y-85300000D01*
X140100000Y-95800000D02*
X140100000Y-85300000D01*
X140100000Y-104300000D02*
X140100000Y-95800000D01*
X159900000Y-85300000D02*
X159900000Y-104300000D01*
X160000000Y-104300000D02*
X140100000Y-104300000D01*
X165500000Y-79300000D02*
X165700000Y-79300000D01*
X165500000Y-110300000D02*
X134300000Y-110300000D01*
X165500000Y-110300000D02*
X165700000Y-110300000D01*
X165700000Y-79300000D02*
X165700000Y-110300000D01*
%TD*%
M02*
